<svg viewBox="0 0 330 200" xmlns="http://www.w3.org/2000/svg"><g><g><g><g><g><line x1="58" y1="178" x2="53" y2="178" style="visibility: inherit;" fill="rgb(0, 0, 0)" stroke="rgb(204, 204, 204)" stroke-width="1px"></line><line x1="58" y1="163.16666666666666" x2="53" y2="163.16666666666666" style="visibility: inherit;" fill="rgb(0, 0, 0)" stroke="rgb(204, 204, 204)" stroke-width="1px"></line><line x1="58" y1="148.33333333333334" x2="53" y2="148.33333333333334" style="visibility: inherit;" fill="rgb(0, 0, 0)" stroke="rgb(204, 204, 204)" stroke-width="1px"></line><line x1="58" y1="133.5" x2="53" y2="133.5" style="visibility: inherit;" fill="rgb(0, 0, 0)" stroke="rgb(204, 204, 204)" stroke-width="1px"></line><line x1="58" y1="118.66666666666667" x2="53" y2="118.66666666666667" style="visibility: inherit;" fill="rgb(0, 0, 0)" stroke="rgb(204, 204, 204)" stroke-width="1px"></line><line x1="58" y1="103.83333333333333" x2="53" y2="103.83333333333333" style="visibility: inherit;" fill="rgb(0, 0, 0)" stroke="rgb(204, 204, 204)" stroke-width="1px"></line><line x1="58" y1="89" x2="53" y2="89" style="visibility: inherit;" fill="rgb(0, 0, 0)" stroke="rgb(204, 204, 204)" stroke-width="1px"></line><line x1="58" y1="74.16666666666666" x2="53" y2="74.16666666666666" style="visibility: inherit;" fill="rgb(0, 0, 0)" stroke="rgb(204, 204, 204)" stroke-width="1px"></line><line x1="58" y1="59.333333333333314" x2="53" y2="59.333333333333314" style="visibility: inherit;" fill="rgb(0, 0, 0)" stroke="rgb(204, 204, 204)" stroke-width="1px"></line><line x1="58" y1="44.5" x2="53" y2="44.5" style="visibility: inherit;" fill="rgb(0, 0, 0)" stroke="rgb(204, 204, 204)" stroke-width="1px"></line><line x1="58" y1="29.666666666666657" x2="53" y2="29.666666666666657" style="visibility: inherit;" fill="rgb(0, 0, 0)" stroke="rgb(204, 204, 204)" stroke-width="1px"></line><line x1="58" y1="14.833333333333314" x2="53" y2="14.833333333333314" style="visibility: inherit;" fill="rgb(0, 0, 0)" stroke="rgb(204, 204, 204)" stroke-width="1px"></line><line x1="58" y1="0" x2="53" y2="0" style="visibility: inherit;" fill="rgb(0, 0, 0)" stroke="rgb(204, 204, 204)" stroke-width="1px"></line></g><g transform="translate(48, 0)"><text x="0" y="178" dx="0em" dy="0.3em" style="text-anchor: end; visibility: hidden; font-family: &quot;Helvetica Neue&quot;, sans-serif; font-size: 12px; font-weight: 200;" fill="rgb(50, 49, 63)" stroke="none" stroke-width="1px">-1.2</text><text x="0" y="163.16666666666666" dx="0em" dy="0.3em" style="text-anchor: end; visibility: inherit; font-family: &quot;Helvetica Neue&quot;, sans-serif; font-size: 12px; font-weight: 200;" fill="rgb(50, 49, 63)" stroke="none" stroke-width="1px">-1</text><text x="0" y="148.33333333333334" dx="0em" dy="0.3em" style="text-anchor: end; visibility: hidden; font-family: &quot;Helvetica Neue&quot;, sans-serif; font-size: 12px; font-weight: 200;" fill="rgb(50, 49, 63)" stroke="none" stroke-width="1px">-0.8</text><text x="0" y="133.5" dx="0em" dy="0.3em" style="text-anchor: end; visibility: inherit; font-family: &quot;Helvetica Neue&quot;, sans-serif; font-size: 12px; font-weight: 200;" fill="rgb(50, 49, 63)" stroke="none" stroke-width="1px">-0.6</text><text x="0" y="118.66666666666667" dx="0em" dy="0.3em" style="text-anchor: end; visibility: hidden; font-family: &quot;Helvetica Neue&quot;, sans-serif; font-size: 12px; font-weight: 200;" fill="rgb(50, 49, 63)" stroke="none" stroke-width="1px">-0.4</text><text x="0" y="103.83333333333333" dx="0em" dy="0.3em" style="text-anchor: end; visibility: inherit; font-family: &quot;Helvetica Neue&quot;, sans-serif; font-size: 12px; font-weight: 200;" fill="rgb(50, 49, 63)" stroke="none" stroke-width="1px">-0.2</text><text x="0" y="89" dx="0em" dy="0.3em" style="text-anchor: end; visibility: hidden; font-family: &quot;Helvetica Neue&quot;, sans-serif; font-size: 12px; font-weight: 200;" fill="rgb(50, 49, 63)" stroke="none" stroke-width="1px">0</text><text x="0" y="74.16666666666666" dx="0em" dy="0.3em" style="text-anchor: end; visibility: inherit; font-family: &quot;Helvetica Neue&quot;, sans-serif; font-size: 12px; font-weight: 200;" fill="rgb(50, 49, 63)" stroke="none" stroke-width="1px">0.2</text><text x="0" y="59.333333333333314" dx="0em" dy="0.3em" style="text-anchor: end; visibility: hidden; font-family: &quot;Helvetica Neue&quot;, sans-serif; font-size: 12px; font-weight: 200;" fill="rgb(50, 49, 63)" stroke="none" stroke-width="1px">0.4</text><text x="0" y="44.5" dx="0em" dy="0.3em" style="text-anchor: end; visibility: inherit; font-family: &quot;Helvetica Neue&quot;, sans-serif; font-size: 12px; font-weight: 200;" fill="rgb(50, 49, 63)" stroke="none" stroke-width="1px">0.6</text><text x="0" y="29.666666666666657" dx="0em" dy="0.3em" style="text-anchor: end; visibility: hidden; font-family: &quot;Helvetica Neue&quot;, sans-serif; font-size: 12px; font-weight: 200;" fill="rgb(50, 49, 63)" stroke="none" stroke-width="1px">0.8</text><text x="0" y="14.833333333333314" dx="0em" dy="0.3em" style="text-anchor: end; visibility: inherit; font-family: &quot;Helvetica Neue&quot;, sans-serif; font-size: 12px; font-weight: 200;" fill="rgb(50, 49, 63)" stroke="none" stroke-width="1px">1</text><text x="0" y="0" dx="0em" dy="0.3em" style="text-anchor: end; visibility: hidden; font-family: &quot;Helvetica Neue&quot;, sans-serif; font-size: 12px; font-weight: 200;" fill="rgb(50, 49, 63)" stroke="none" stroke-width="1px">1.2</text></g><line x1="58" y1="0" x2="58" y2="178" fill="rgb(0, 0, 0)" stroke="rgb(204, 204, 204)" stroke-width="1px"></line></g></g><g transform="translate(58, 0)" clip-path="url(#clip_0)"><clipPath id="clip_0"><rect width="272" height="178"></rect></clipPath><g><g><g><line x1="0" y1="0" x2="0" y2="178" fill="rgb(0, 0, 0)" stroke="rgb(60, 60, 60)" stroke-width="1px" opacity="0.25"></line><line x1="24.727272727272727" y1="0" x2="24.727272727272727" y2="178" fill="rgb(0, 0, 0)" stroke="rgb(60, 60, 60)" stroke-width="1px" opacity="0.25"></line><line x1="49.45454545454545" y1="0" x2="49.45454545454545" y2="178" fill="rgb(0, 0, 0)" stroke="rgb(60, 60, 60)" stroke-width="1px" opacity="0.25"></line><line x1="74.18181818181817" y1="0" x2="74.18181818181817" y2="178" fill="rgb(0, 0, 0)" stroke="rgb(60, 60, 60)" stroke-width="1px" opacity="0.25"></line><line x1="98.9090909090909" y1="0" x2="98.9090909090909" y2="178" fill="rgb(0, 0, 0)" stroke="rgb(60, 60, 60)" stroke-width="1px" opacity="0.25"></line><line x1="123.63636363636363" y1="0" x2="123.63636363636363" y2="178" fill="rgb(0, 0, 0)" stroke="rgb(60, 60, 60)" stroke-width="1px" opacity="0.25"></line><line x1="148.36363636363635" y1="0" x2="148.36363636363635" y2="178" fill="rgb(0, 0, 0)" stroke="rgb(60, 60, 60)" stroke-width="1px" opacity="0.25"></line><line x1="173.0909090909091" y1="0" x2="173.0909090909091" y2="178" fill="rgb(0, 0, 0)" stroke="rgb(60, 60, 60)" stroke-width="1px" opacity="0.25"></line><line x1="197.8181818181818" y1="0" x2="197.8181818181818" y2="178" fill="rgb(0, 0, 0)" stroke="rgb(60, 60, 60)" stroke-width="1px" opacity="0.25"></line><line x1="222.54545454545456" y1="0" x2="222.54545454545456" y2="178" fill="rgb(0, 0, 0)" stroke="rgb(60, 60, 60)" stroke-width="1px" opacity="0.25"></line><line x1="247.27272727272725" y1="0" x2="247.27272727272725" y2="178" fill="rgb(0, 0, 0)" stroke="rgb(60, 60, 60)" stroke-width="1px" opacity="0.25"></line><line x1="272" y1="0" x2="272" y2="178" fill="rgb(0, 0, 0)" stroke="rgb(60, 60, 60)" stroke-width="1px" opacity="0.25"></line></g><g><line x1="0" y1="178" x2="272" y2="178" fill="rgb(0, 0, 0)" stroke="rgb(60, 60, 60)" stroke-width="1px" opacity="0.25"></line><line x1="0" y1="163.16666666666666" x2="272" y2="163.16666666666666" fill="rgb(0, 0, 0)" stroke="rgb(60, 60, 60)" stroke-width="1px" opacity="0.25"></line><line x1="0" y1="148.33333333333334" x2="272" y2="148.33333333333334" fill="rgb(0, 0, 0)" stroke="rgb(60, 60, 60)" stroke-width="1px" opacity="0.25"></line><line x1="0" y1="133.5" x2="272" y2="133.5" fill="rgb(0, 0, 0)" stroke="rgb(60, 60, 60)" stroke-width="1px" opacity="0.25"></line><line x1="0" y1="118.66666666666667" x2="272" y2="118.66666666666667" fill="rgb(0, 0, 0)" stroke="rgb(60, 60, 60)" stroke-width="1px" opacity="0.25"></line><line x1="0" y1="103.83333333333333" x2="272" y2="103.83333333333333" fill="rgb(0, 0, 0)" stroke="rgb(60, 60, 60)" stroke-width="1px" opacity="0.25"></line><line x1="0" y1="89" x2="272" y2="89" fill="rgb(0, 0, 0)" stroke="rgb(60, 60, 60)" stroke-width="1px" opacity="0.25"></line><line x1="0" y1="74.16666666666666" x2="272" y2="74.16666666666666" fill="rgb(0, 0, 0)" stroke="rgb(60, 60, 60)" stroke-width="1px" opacity="0.25"></line><line x1="0" y1="59.333333333333314" x2="272" y2="59.333333333333314" fill="rgb(0, 0, 0)" stroke="rgb(60, 60, 60)" stroke-width="1px" opacity="0.25"></line><line x1="0" y1="44.5" x2="272" y2="44.5" fill="rgb(0, 0, 0)" stroke="rgb(60, 60, 60)" stroke-width="1px" opacity="0.25"></line><line x1="0" y1="29.666666666666657" x2="272" y2="29.666666666666657" fill="rgb(0, 0, 0)" stroke="rgb(60, 60, 60)" stroke-width="1px" opacity="0.25"></line><line x1="0" y1="14.833333333333314" x2="272" y2="14.833333333333314" fill="rgb(0, 0, 0)" stroke="rgb(60, 60, 60)" stroke-width="1px" opacity="0.25"></line><line x1="0" y1="0" x2="272" y2="0" fill="rgb(0, 0, 0)" stroke="rgb(60, 60, 60)" stroke-width="1px" opacity="0.25"></line></g></g></g><g><g><line x1="0" y1="89" x2="272" y2="89" fill="rgb(0, 0, 0)" stroke="rgb(153, 153, 153)" stroke-width="1.5px"></line></g></g><g><g><line x1="24.727272727272727" y1="0" x2="24.727272727272727" y2="178" fill="rgb(0, 0, 0)" stroke="rgb(153, 153, 153)" stroke-width="1.5px"></line></g></g><g><g><g><g><g><path stroke="rgb(255, 112, 67)" stroke-width="2px" d="M24.974545454545453,89L25.617454545454546,89L25.914181818181817,89L26.705454545454543,89L26.804363636363636,89L26.903272727272725,89L26.952727272727273,89L27.051636363636362,89L27.348363636363636,89L27.496727272727274,89L27.94181818181818,89L28.238545454545456,89L28.337454545454545,89L28.386909090909093,89L28.634181818181816,89L29.029818181818182,89L29.376,89L29.771636363636365,89L29.92,89L29.969454545454546,89L30.315636363636365,89L30.56290909090909,89L30.958545454545455,89L31.156363636363636,89L31.601454545454544,89L32.14545454545455,89L32.39272727272727,89L32.54109090909091,89L32.98618181818182,89L33.035636363636364,89L33.530181818181816,89L33.777454545454546,89L33.876363636363635,89L33.92581818181818,89L34.123636363636365,89L34.51927272727273,89L34.91490909090909,89L34.964363636363636,89L35.211636363636366,89L35.75563636363636,89L36.05236363636364,89L36.29963636363637,89L36.448,89L37.04145454545454,89L37.338181818181816,89L37.585454545454546,89L37.73381818181818,89L37.93163636363636,89L38.12945454545455,89L38.22836363636364,89L39.168,89L39.41527272727273,89L39.46472727272727,89L39.711999999999996,89L39.959272727272726,89L40.05818181818182,89L40.453818181818185,89L40.50327272727273,89L40.84945454545455,89L40.89890909090909,89L41.04727272727273,89L41.492363636363635,89L41.888,89L42.67927272727273,89L42.87709090909091,89L43.17381818181818,89L43.37163636363636,89L43.47054545454546,89L44.113454545454545,89L44.90472727272727,89L45.547636363636364,89L45.59709090909091,89L45.696000000000005,89L45.99272727272727,89L46.43781818181818,89L46.536727272727276,89L46.58618181818182,89L46.734545454545454,89L47.03127272727272,89L47.476363636363644,89L47.62472727272728,89L47.67418181818182,89L48.168727272727274,89L48.910545454545456,89L49.009454545454545,89L49.108363636363634,89L49.80072727272727,89L50.048,89L50.14690909090909,89L50.29527272727273,89L50.690909090909095,89L50.98763636363636,89L51.08654545454546,89L51.23490909090909,89L51.531636363636366,89L51.778909090909096,89L52.27345454545454,89L52.37236363636364,89L52.570181818181815,89L52.8669090909091,89L53.064727272727275,89L53.36145454545454,89L53.46036363636364,89L53.50981818181818,89L53.60872727272727,89L53.70763636363637,89L53.75709090909091,89L54.004363636363635,89L54.05381818181818,89L54.49890909090909,89L54.79563636363636,89L54.89454545454545,89L55.14181818181818,89L55.38909090909091,89L55.488,89L56.08145454545455,89L56.42763636363636,89L56.47709090909091,89L56.576,89L56.67490909090909,89L56.724363636363634,89L56.82327272727272,89L57.41672727272727,89L57.56509090909091,89L57.76290909090909,89L57.911272727272724,89L58.059636363636365,89L58.25745454545455,89L58.306909090909095,89L58.50472727272727,89L58.752,89L58.80145454545454,89L59.296,89L59.49381818181818,89L59.642181818181825,89L60.03781818181818,89L60.23563636363637,89L60.384,89L60.433454545454545,89L60.4829090909091,89L60.82909090909091,89L61.12581818181818,89L61.22472727272727,89L61.274181818181816,89L61.472,89L61.66981818181818,89L61.81818181818181,89L61.867636363636365,89L61.91709090909091,89L62.11490909090909,89L62.56,89L62.75781818181818,89L62.807272727272725,89L62.85672727272728,89L62.955636363636366,89L63.00509090909091,89L63.301818181818184,89L63.49963636363636,89L63.54909090909091,89L63.648,89L63.74690909090909,89L63.895272727272726,89L63.94472727272728,89L63.994181818181815,89L64.04363636363637,89L64.192,89L64.38981818181819,89L64.63709090909092,89L64.68654545454545,89L64.73599999999999,89L65.03272727272727,89L65.52727272727273,89L65.67563636363636,89L65.87345454545455,89L66.07127272727273,89L66.17018181818182,89L66.41745454545455,89L67.60436363636363,89L67.70327272727273,89L67.75272727272727,89L67.95054545454546,89L68.04945454545454,89L68.24727272727273,89L68.34618181818182,89L68.74181818181819,89L69.03854545454546,89L69.23636363636363,89L69.58254545454545,89L69.632,89L69.68145454545454,89L69.73090909090908,89L69.97818181818181,89L70.07709090909091,89L70.22545454545454,89L70.27490909090909,89L70.3738181818182,89L70.76945454545455,89L70.81890909090909,89L70.96727272727273,89L71.31345454545455,89L71.46181818181819,89L71.9069090909091,89L72.00581818181817,89L72.10472727272727,89L72.2530909090909,89L72.30254545454547,89L72.74763636363636,89L72.7970909090909,89L72.99490909090909,89L73.04436363636363,89L73.09381818181818,89L73.14327272727273,89L73.34109090909091,89L73.39054545454546,89L73.53890909090909,89L73.58836363636364,89L73.98400000000001,89L74.18181818181817,89L74.28072727272728,89L74.37963636363637,89L74.4290909090909,89L74.87418181818182,89L75.02254545454545,89L75.41818181818182,89L75.51709090909091,89L75.71490909090909,89L75.76436363636364,89L76.01163636363637,89L76.35781818181817,89L76.90181818181819,89L77.00072727272727,89L77.29745454545456,89L77.44581818181818,89L77.54472727272729,89L77.74254545454545,89L77.94036363636364,89L78.03927272727272,89L78.28654545454545,89L78.336,89L78.38545454545455,89L78.7810909090909,89L79.07781818181817,89L79.27563636363637,89L79.3250909090909,89L79.37454545454545,89L79.81963636363636,89L80.06690909090909,89L80.75927272727273,89L80.85818181818182,89L81.84727272727272,89L81.89672727272728,89L82.09454545454545,89L82.14399999999999,89L82.19345454545454,89L83.08363636363637,89L83.33090909090909,89L83.67709090909091,89L83.72654545454546,89L84.02327272727273,89L84.12218181818182,89L84.36945454545454,89L84.46836363636365,89L84.56727272727272,89L84.76509090909092,89L85.65527272727273,89L85.75418181818182,89L85.85309090909091,89L86.24872727272728,89L86.39709090909092,89L86.69381818181819,89L86.79272727272728,89L86.89163636363637,89L86.94109090909092,89L87.08945454545454,89L87.33672727272727,89L87.73236363636363,89L88.07854545454546,89L88.37527272727273,89L88.57309090909091,89L88.62254545454546,89L88.672,89L88.72145454545455,89L89.01818181818182,89L89.51272727272728,89L89.61163636363636,89L89.76,89L89.80945454545454,89L89.95781818181817,89L90.25454545454546,89L90.35345454545455,89L90.50181818181818,89L90.65018181818182,89L90.79854545454545,89L90.848,89L91.73818181818181,89L92.28218181818183,89L92.48,89L93.22181818181818,89L93.37018181818182,89L93.41963636363636,89L93.51854545454545,89L93.568,89L94.5570909090909,89L94.60654545454545,89L94.65599999999999,89L94.90327272727272,89L95.05163636363636,89L95.24945454545455,89L95.34836363636364,89L95.54618181818182,89L95.744,89L95.94181818181818,89L96.7330909090909,89L97.17818181818183,89L97.22763636363636,89L97.77163636363636,89L98.16727272727273,89L98.21672727272727,89L98.36509090909091,89L98.464,89L98.51345454545454,89L98.9090909090909,89L98.95854545454546,89L99.30472727272726,89L99.40363636363637,89L100.04654545454545,89L100.096,89L100.24436363636364,89L100.59054545454546,89L101.184,89L101.43127272727273,89L101.48072727272726,89L101.57963636363635,89L101.92581818181819,89L102.272,89L102.32145454545454,89L102.76654545454545,89L102.96436363636363,89L103.06327272727273,89L103.26109090909091,89L103.70618181818182,89L104.05236363636362,89L104.10181818181819,89L104.3490909090909,89L104.74472727272727,89L104.84363636363636,89L105.18981818181818,89L105.23927272727273,89L105.4370909090909,89L105.68436363636363,89L105.83272727272727,89L105.93163636363636,89L106.08,89L106.22836363636364,89L106.42618181818182,89L106.82181818181817,89L107.21745454545454,89L107.31636363636363,89L107.41527272727274,89L107.56363636363636,89L107.6130909090909,89L107.90981818181818,89L107.95927272727273,89L108.35490909090909,89L108.50327272727273,89L108.55272727272728,89L108.60218181818182,89L108.65163636363636,89L108.75054545454545,89L108.89890909090909,89L109.2450909090909,89L109.29454545454544,89L109.64072727272728,89L109.69018181818183,89L109.73963636363636,89L110.18472727272727,89L110.38254545454545,89L110.48145454545455,89L110.53090909090909,89L110.62981818181818,89L110.87709090909091,89L110.92654545454545,89L111.02545454545455,89L111.07490909090909,89L111.12436363636364,89L111.37163636363637,89L112.064,89L112.50909090909092,89L112.80581818181818,89L113.152,89L113.20145454545455,89L113.64654545454545,89L113.99272727272727,89L114.43781818181819,89L114.58618181818183,89L114.93236363636365,89L115.03127272727272,89L115.22909090909091,89L115.72363636363637,89L115.77309090909091,89L115.92145454545454,89L116.16872727272727,89L116.36654545454546,89L117.00945454545455,89L117.10836363636363,89L117.15781818181819,89L117.45454545454545,89L117.504,89L117.55345454545454,89L117.65236363636365,89L117.75127272727272,89L118.34472727272727,89L119.23490909090908,89L119.53163636363635,89L119.87781818181818,89L120.17454545454545,89L120.37236363636363,89L120.47127272727273,89L120.57018181818182,89L120.86690909090909,89L121.01527272727273,89L121.11418181818182,89L121.26254545454546,89L121.41090909090909,89L121.55927272727273,89L122.00436363636364,89L122.10327272727272,89L122.69672727272727,89L122.74618181818181,89L122.79563636363636,89L123.488,89L123.68581818181818,89L123.88363636363636,89L124.08145454545455,89L124.13090909090909,89L124.27927272727274,89L124.37818181818182,89L124.4770909090909,89L124.87272727272727,89L124.97163636363636,89L125.12,89L125.26836363636363,89L125.41672727272727,89L125.51563636363636,89L125.664,89L125.81236363636363,89L126.60363636363637,89L126.94981818181817,89L127.1970909090909,89L127.24654545454545,89L127.296,89L127.3949090909091,89L127.44436363636363,89L127.54327272727272,89L127.64218181818183,89L127.83999999999999,89L128.03781818181818,89L128.2850909090909,89L128.384,89L128.73018181818182,89L128.8290909090909,89L128.87854545454545,89L129.12581818181818,89L129.32363636363635,89L129.57090909090908,89L129.6698181818182,89L129.7192727272727,89L130.21381818181817,89L130.26327272727272,89L130.4610909090909,89L130.60945454545453,89L130.75781818181818,89L130.80727272727273,89L130.95563636363636,89L131.0050909090909,89L131.10399999999998,89L131.35127272727271,89L131.40072727272727,89L131.7469090909091,89L131.79636363636365,89L131.99418181818183,89L132.0930909090909,89L132.192,89L132.38981818181819,89L132.88436363636364,89L132.98327272727272,89L133.08218181818182,89L133.13163636363637,89L133.32945454545455,89L133.47781818181818,89L133.87345454545454,89L134.0712727272727,89L134.21963636363637,89L134.76363636363638,89L134.96145454545453,89L135.06036363636363,89L135.30763636363636,89L135.3570909090909,89L135.456,89L135.5549090909091,89L135.60436363636364,89L135.70327272727272,89L135.80218181818182,89L135.85163636363635,89L136.04945454545455,89L136.19781818181818,89L136.34618181818183,89L136.59345454545453,89L137.1869090909091,89L137.38472727272728,89L137.5330909090909,89L138.02763636363636,89L138.32436363636364,89L138.37381818181817,89L138.47272727272727,89L138.62109090909092,89L138.76945454545455,89L138.81890909090907,89L138.86836363636363,89L139.36290909090908,89L139.41236363636364,89L139.46181818181816,89L139.56072727272726,89L140.15418181818183,89L140.20363636363638,89L140.25309090909093,89L140.30254545454545,89L140.6981818181818,89L141.14327272727272,89L141.984,89L142.67636363636365,89L142.82472727272727,89L142.8741818181818,89L142.92363636363638,89L143.02254545454545,89L143.4181818181818,89L143.5170909090909,89L143.7149090909091,89L144.20945454545455,89L144.60509090909093,89L144.65454545454546,89L145.19854545454547,89L145.5941818181818,89L145.8909090909091,89L145.94036363636363,89L146.03927272727273,89L146.1381818181818,89L146.38545454545456,89L147.3250909090909,89L147.424,89L147.62181818181818,89L147.67127272727274,89L148.16581818181817,89L148.26472727272727,89L148.4130909090909,89L148.46254545454548,89L148.512,89L149.00654545454546,89L149.056,89L149.20436363636364,89L149.3032727272727,89L149.5010909090909,89L149.60000000000002,89L149.74836363636365,89L149.84727272727272,89L149.9461818181818,89L150.0450909090909,89L150.4901818181818,89L150.68800000000002,89L150.8858181818182,89L150.98472727272727,89L151.1330909090909,89L151.28145454545455,89L151.5781818181818,89L151.62763636363636,89L151.82545454545456,89L151.9738181818182,89L152.12218181818182,89L152.2210909090909,89L152.66618181818183,89L152.81454545454545,89L152.864,89L152.91345454545456,89L152.9629090909091,89L153.11127272727273,89L153.3090909090909,89L153.6058181818182,89L153.65527272727272,89L153.80363636363637,89L154.19927272727273,89L154.44654545454546,89L154.5949090909091,89L154.74327272727274,89L154.79272727272726,89L155.08945454545457,89L155.18836363636365,89L155.4850909090909,89L155.63345454545455,89L155.78181818181818,89L155.83127272727273,89L156.0290909090909,89L156.96872727272728,89L157.16654545454546,89L157.26545454545453,89L157.51272727272726,89L157.76,89L158.4029090909091,89L158.60072727272728,89L158.7490909090909,89L159.49090909090907,89L160.03490909090908,89L160.08436363636366,89L160.2327272727273,89L160.52945454545454,89L160.87563636363637,89L160.9250909090909,89L160.97454545454545,89L161.024,89L161.07345454545452,89L161.12290909090908,89L161.51854545454546,89L162.656,89L162.70545454545453,89L162.75490909090908,89L163.1010909090909,89L163.6450909090909,89L163.744,89L164.33745454545453,89L164.38690909090909,89L164.53527272727274,89L164.63418181818182,89L164.68363636363637,89L164.78254545454544,89L165.72218181818184,89L165.96945454545454,89L166.11781818181817,89L166.26618181818182,89L166.71127272727273,89L166.76072727272728,89L167.05745454545453,89L167.15636363636364,89L167.20581818181816,89L167.50254545454544,89L167.6509090909091,89L167.70036363636362,89L167.94763636363638,89L168.04654545454545,89L168.14545454545453,89L168.29381818181818,89L168.34327272727273,89L168.7389090909091,89L168.98618181818182,89L169.08509090909092,89L169.13454545454545,89L169.184,89L169.728,89L170.22254545454547,89L170.61818181818182,89L171.4589090909091,89L171.70618181818182,89L171.80509090909092,89L171.85454545454547,89L172.0029090909091,89L172.49745454545456,89L172.79418181818184,89L172.992,89L173.23927272727272,89L173.33818181818182,89L173.43709090909093,89L173.536,89L173.63490909090908,89L173.83272727272725,89L173.88218181818183,89L174.03054545454546,89L174.3272727272727,89L174.42618181818185,89L174.57454545454547,89L174.9701818181818,89L175.06909090909093,89L175.11854545454545,89L175.168,89L175.56363636363636,89L176.30545454545455,89L176.40436363636363,89L176.50327272727273,89L176.6021818181818,89L176.7010909090909,89L177.14618181818182,89L177.344,89L177.4429090909091,89L177.98690909090908,89L178.18472727272726,89L178.67927272727272,89L179.12436363636363,89L179.37163636363636,89L179.7178181818182,89L179.86618181818181,89L179.91563636363634,89L180.21236363636365,89L180.26181818181817,89L180.36072727272727,89L180.50909090909093,89L180.75636363636363,89L180.90472727272726,89L180.9541818181818,89L181.05309090909088,89L181.84436363636365,89L182.19054545454546,89L182.38836363636364,89L182.73454545454547,89L182.78400000000002,89L183.13018181818182,89L183.27854545454548,89L184.46545454545455,89L184.61381818181817,89L184.71272727272728,89L184.96,89L185.10836363636363,89L185.1578181818182,89L185.25672727272726,89L185.3061818181818,89L185.65236363636365,89L185.75127272727272,89L185.85018181818182,89L186.29527272727273,89L186.54254545454543,89L186.98763636363637,89L187.08654545454544,89L187.18545454545455,89L187.38327272727273,89L187.53163636363635,89L188.17454545454544,89L188.224,89L188.27345454545457,89L188.57018181818182,89L188.96581818181818,89L189.26254545454543,89L189.31199999999998,89L189.36145454545456,89L189.55927272727274,89L189.80654545454544,89L190.15272727272728,89L190.54836363636366,89L190.7461818181818,89L190.944,89L191.0429090909091,89L191.33963636363637,89L191.488,89L191.5869090909091,89L191.68581818181818,89L191.78472727272728,89L191.9330909090909,89L192.18036363636364,89L192.7738181818182,89L193.0210909090909,89L193.26836363636366,89L194.15854545454545,89L194.35636363636365,89L194.50472727272728,89L194.75199999999998,89L195.0487272727273,89L195.0981818181818,89L195.296,89L195.39490909090907,89L195.69163636363638,89L195.7410909090909,89L196.03781818181818,89L196.384,89L196.68072727272727,89L196.8290909090909,89L197.1258181818182,89L197.6698181818182,89L197.7687272727273,89L198.11490909090907,89L198.26327272727275,89L198.36218181818182,89L198.41163636363638,89L198.51054545454545,89L198.7578181818182,89L199.54909090909092,89L199.648,89L199.69745454545455,89L199.89527272727275,89L199.94472727272728,89L200.14254545454546,89L200.24145454545453,89L200.53818181818184,89L200.58763636363636,89L200.736,89L200.93381818181817,89L201.52727272727273,89L201.77454545454546,89L201.9229090909091,89L202.368,89L202.41745454545455,89L202.71418181818183,89L202.76363636363638,89L203.456,89L203.65381818181817,89L203.7527272727273,89L203.85163636363637,89L204,89L204.14836363636363,89L204.59345454545453,89L204.89018181818182,89L204.98909090909092,89L205.5330909090909,89L205.58254545454545,89L205.8792727272727,89L206.22545454545454,89L207.41236363636364,89L207.46181818181816,89L207.56072727272726,89L207.70909090909092,89L207.808,89L208.84654545454546,89L208.9949090909091,89L209.19272727272727,89L209.2421818181818,89L209.29163636363637,89L209.58836363636362,89L209.73672727272725,89L209.83563636363638,89L209.93454545454546,89L210.28072727272726,89L210.47854545454547,89L210.6269090909091,89L210.8741818181818,89L211.26981818181818,89L211.4676363636364,89L211.56654545454546,89L211.66545454545454,89L212.01163636363634,89L212.30836363636362,89L212.40727272727273,89L212.55563636363635,89L213.09963636363636,89L213.14909090909092,89L213.3469090909091,89L213.5941818181818,89L213.69309090909093,89L214.18763636363636,89L214.28654545454546,89L214.38545454545456,89L215.02836363636365,89L215.3250909090909,89L215.81963636363636,89L216.0669090909091,89L216.4130909090909,89L216.56145454545455,89L216.66036363636363,89L217.64945454545455,89L217.6989090909091,89L217.74836363636365,89L217.99563636363635,89L218.09454545454543,89L218.39127272727274,89L218.58909090909088,89L218.93527272727272,89L218.98472727272727,89L219.03418181818182,89L219.28145454545455,89L219.3309090909091,89L219.52872727272728,89L220.07272727272726,89L220.36945454545454,89L220.66618181818183,89L220.81454545454545,89L220.91345454545456,89L221.35854545454544,89L221.55636363636364,89L221.75418181818182,89L221.8530909090909,89L222.10036363636365,89L222.2981818181818,89L222.3970909090909,89L222.54545454545456,89L222.79272727272726,89L222.99054545454544,89L223.04,89L223.1389090909091,89L223.58399999999997,89L223.63345454545455,89L224.17745454545454,89L224.27636363636364,89L224.3258181818182,89L224.672,89L224.7709090909091,89L224.82036363636365,89L224.86981818181818,89L224.91927272727273,89L225.1170909090909,89L225.21599999999998,89L226.304,89L226.45236363636366,89L226.89745454545454,89L227.0458181818182,89L227.14472727272727,89L227.392,89L227.44145454545452,89L227.54036363636365,89L227.93599999999998,89L228.18327272727274,89L228.52945454545454,89L229.91418181818182,89L230.26036363636365,89L230.80436363636363,89L231.05163636363636,89L231.49672727272727,89L231.54618181818182,89L232.04072727272728,89L232.09018181818183,89L232.13963636363636,89L232.23854545454546,89L232.33745454545453,89L232.43636363636364,89L232.4858181818182,89L232.53527272727274,89L232.63418181818182,89L233.52436363636363,89L233.77163636363636,89L234.0189090909091,89L234.16727272727275,89L234.31563636363637,89L234.56290909090907,89L235.10690909090908,89L235.552,89L235.70036363636362,89L235.74981818181817,89L236.19490909090908,89L236.49163636363636,89L237.23345454545455,89L237.28290909090907,89L237.57963636363638,89L237.77745454545453,89L237.92581818181816,89L238.22254545454547,89L238.32145454545454,89L238.76654545454545,89L238.96436363636363,89L239.2610909090909,89L239.50836363636364,89L239.80509090909092,89L240.0029090909091,89L240.25018181818183,89L240.59636363636363,89L240.79418181818184,89L241.23927272727272,89L241.38763636363637,89L241.9810909090909,89L242.3272727272727,89L242.47563636363637,89L242.57454545454547,89L242.624,89L242.82181818181817,89L242.87127272727272,89L242.92072727272725,89L243.5141818181818,89L243.8109090909091,89L243.86036363636364,89L243.95927272727272,89L244.20654545454545,89L244.256,89L244.40436363636363,89L244.7010909090909,89L244.8989090909091,89L245.24509090909092,89L245.73963636363635,89L246.03636363636363,89L246.2341818181818,89L246.38254545454546,89L246.7781818181818,89L246.87709090909092,89L247.52,89L247.7178181818182,89L247.7672727272727,89L248.7069090909091,89L248.75636363636363,89L248.90472727272726,89L248.9541818181818,89L249.2509090909091,89L249.3498181818182,89L249.74545454545455,89L249.84436363636365,89L249.89381818181818,89L250.53672727272726,89L250.5861818181818,89L250.63563636363637,89L250.6850909090909,89L250.93236363636365,89L251.08072727272727,89L251.13018181818182,89L251.27854545454548,89L251.37745454545455,89L251.82254545454546,89L251.9709090909091,89L252.0698181818182,89L252.16872727272727,89L252.7621818181818,89L252.96,89" style="fill: none;" fill="none"></path></g></g></g></g><g opacity="0.2"><g><g><g><path stroke="rgb(255, 112, 67)" stroke-width="2px" d="M24.974545454545453,89L25.617454545454546,89L25.914181818181817,89L26.705454545454543,89L26.804363636363636,89L26.903272727272725,89L26.952727272727273,89L27.051636363636362,89L27.348363636363636,89L27.496727272727274,89L27.94181818181818,89L28.238545454545456,89L28.337454545454545,89L28.386909090909093,89L28.634181818181816,89L29.029818181818182,89L29.376,89L29.771636363636365,89L29.92,89L29.969454545454546,89L30.315636363636365,89L30.56290909090909,89L30.958545454545455,89L31.156363636363636,89L31.601454545454544,89L32.14545454545455,89L32.39272727272727,89L32.54109090909091,89L32.98618181818182,89L33.035636363636364,89L33.530181818181816,89L33.777454545454546,89L33.876363636363635,89L33.92581818181818,89L34.123636363636365,89L34.51927272727273,89L34.91490909090909,89L34.964363636363636,89L35.211636363636366,89L35.75563636363636,89L36.05236363636364,89L36.29963636363637,89L36.448,89L37.04145454545454,89L37.338181818181816,89L37.585454545454546,89L37.73381818181818,89L37.93163636363636,89L38.12945454545455,89L38.22836363636364,89L39.168,89L39.41527272727273,89L39.46472727272727,89L39.711999999999996,89L39.959272727272726,89L40.05818181818182,89L40.453818181818185,89L40.50327272727273,89L40.84945454545455,89L40.89890909090909,89L41.04727272727273,89L41.492363636363635,89L41.888,89L42.67927272727273,89L42.87709090909091,89L43.17381818181818,89L43.37163636363636,89L43.47054545454546,89L44.113454545454545,89L44.90472727272727,89L45.547636363636364,89L45.59709090909091,89L45.696000000000005,89L45.99272727272727,89L46.43781818181818,89L46.536727272727276,89L46.58618181818182,89L46.734545454545454,89L47.03127272727272,89L47.476363636363644,89L47.62472727272728,89L47.67418181818182,89L48.168727272727274,89L48.910545454545456,89L49.009454545454545,89L49.108363636363634,89L49.80072727272727,89L50.048,89L50.14690909090909,89L50.29527272727273,89L50.690909090909095,89L50.98763636363636,89L51.08654545454546,89L51.23490909090909,89L51.531636363636366,89L51.778909090909096,89L52.27345454545454,89L52.37236363636364,89L52.570181818181815,89L52.8669090909091,89L53.064727272727275,89L53.36145454545454,89L53.46036363636364,89L53.50981818181818,89L53.60872727272727,89L53.70763636363637,89L53.75709090909091,89L54.004363636363635,89L54.05381818181818,89L54.49890909090909,89L54.79563636363636,89L54.89454545454545,89L55.14181818181818,89L55.38909090909091,89L55.488,89L56.08145454545455,89L56.42763636363636,89L56.47709090909091,89L56.576,89L56.67490909090909,89L56.724363636363634,89L56.82327272727272,89L57.41672727272727,89L57.56509090909091,89L57.76290909090909,89L57.911272727272724,89L58.059636363636365,89L58.25745454545455,89L58.306909090909095,89L58.50472727272727,89L58.752,89L58.80145454545454,89L59.296,89L59.49381818181818,89L59.642181818181825,89L60.03781818181818,89L60.23563636363637,89L60.384,89L60.433454545454545,89L60.4829090909091,89L60.82909090909091,89L61.12581818181818,89L61.22472727272727,89L61.274181818181816,89L61.472,89L61.66981818181818,89L61.81818181818181,89L61.867636363636365,89L61.91709090909091,89L62.11490909090909,89L62.56,89L62.75781818181818,89L62.807272727272725,89L62.85672727272728,89L62.955636363636366,89L63.00509090909091,89L63.301818181818184,89L63.49963636363636,89L63.54909090909091,89L63.648,89L63.74690909090909,89L63.895272727272726,89L63.94472727272728,89L63.994181818181815,89L64.04363636363637,89L64.192,89L64.38981818181819,89L64.63709090909092,89L64.68654545454545,89L64.73599999999999,89L65.03272727272727,89L65.52727272727273,89L65.67563636363636,89L65.87345454545455,89L66.07127272727273,89L66.17018181818182,89L66.41745454545455,89L67.60436363636363,89L67.70327272727273,89L67.75272727272727,89L67.95054545454546,89L68.04945454545454,89L68.24727272727273,89L68.34618181818182,89L68.74181818181819,89L69.03854545454546,89L69.23636363636363,89L69.58254545454545,89L69.632,89L69.68145454545454,89L69.73090909090908,89L69.97818181818181,89L70.07709090909091,89L70.22545454545454,89L70.27490909090909,89L70.3738181818182,89L70.76945454545455,89L70.81890909090909,89L70.96727272727273,89L71.31345454545455,89L71.46181818181819,89L71.9069090909091,89L72.00581818181817,89L72.10472727272727,89L72.2530909090909,89L72.30254545454547,89L72.74763636363636,89L72.7970909090909,89L72.99490909090909,89L73.04436363636363,89L73.09381818181818,89L73.14327272727273,89L73.34109090909091,89L73.39054545454546,89L73.53890909090909,89L73.58836363636364,89L73.98400000000001,89L74.18181818181817,89L74.28072727272728,89L74.37963636363637,89L74.4290909090909,89L74.87418181818182,89L75.02254545454545,89L75.41818181818182,89L75.51709090909091,89L75.71490909090909,89L75.76436363636364,89L76.01163636363637,89L76.35781818181817,89L76.90181818181819,89L77.00072727272727,89L77.29745454545456,89L77.44581818181818,89L77.54472727272729,89L77.74254545454545,89L77.94036363636364,89L78.03927272727272,89L78.28654545454545,89L78.336,89L78.38545454545455,89L78.7810909090909,89L79.07781818181817,89L79.27563636363637,89L79.3250909090909,89L79.37454545454545,89L79.81963636363636,89L80.06690909090909,89L80.75927272727273,89L80.85818181818182,89L81.84727272727272,89L81.89672727272728,89L82.09454545454545,89L82.14399999999999,89L82.19345454545454,89L83.08363636363637,89L83.33090909090909,89L83.67709090909091,89L83.72654545454546,89L84.02327272727273,89L84.12218181818182,89L84.36945454545454,89L84.46836363636365,89L84.56727272727272,89L84.76509090909092,89L85.65527272727273,89L85.75418181818182,89L85.85309090909091,89L86.24872727272728,89L86.39709090909092,89L86.69381818181819,89L86.79272727272728,89L86.89163636363637,89L86.94109090909092,89L87.08945454545454,89L87.33672727272727,89L87.73236363636363,89L88.07854545454546,89L88.37527272727273,89L88.57309090909091,89L88.62254545454546,89L88.672,89L88.72145454545455,89L89.01818181818182,89L89.51272727272728,89L89.61163636363636,89L89.76,89L89.80945454545454,89L89.95781818181817,89L90.25454545454546,89L90.35345454545455,89L90.50181818181818,89L90.65018181818182,89L90.79854545454545,89L90.848,89L91.73818181818181,89L92.28218181818183,89L92.48,89L93.22181818181818,89L93.37018181818182,89L93.41963636363636,89L93.51854545454545,89L93.568,89L94.5570909090909,89L94.60654545454545,89L94.65599999999999,89L94.90327272727272,89L95.05163636363636,89L95.24945454545455,89L95.34836363636364,89L95.54618181818182,89L95.744,89L95.94181818181818,89L96.7330909090909,89L97.17818181818183,89L97.22763636363636,89L97.77163636363636,89L98.16727272727273,89L98.21672727272727,89L98.36509090909091,89L98.464,89L98.51345454545454,89L98.9090909090909,89L98.95854545454546,89L99.30472727272726,89L99.40363636363637,89L100.04654545454545,89L100.096,89L100.24436363636364,89L100.59054545454546,89L101.184,89L101.43127272727273,89L101.48072727272726,89L101.57963636363635,89L101.92581818181819,89L102.272,89L102.32145454545454,89L102.76654545454545,89L102.96436363636363,89L103.06327272727273,89L103.26109090909091,89L103.70618181818182,89L104.05236363636362,89L104.10181818181819,89L104.3490909090909,89L104.74472727272727,89L104.84363636363636,89L105.18981818181818,89L105.23927272727273,89L105.4370909090909,89L105.68436363636363,89L105.83272727272727,89L105.93163636363636,89L106.08,89L106.22836363636364,89L106.42618181818182,89L106.82181818181817,89L107.21745454545454,89L107.31636363636363,89L107.41527272727274,89L107.56363636363636,89L107.6130909090909,89L107.90981818181818,89L107.95927272727273,89L108.35490909090909,89L108.50327272727273,89L108.55272727272728,89L108.60218181818182,89L108.65163636363636,89L108.75054545454545,89L108.89890909090909,89L109.2450909090909,89L109.29454545454544,89L109.64072727272728,89L109.69018181818183,89L109.73963636363636,89L110.18472727272727,89L110.38254545454545,89L110.48145454545455,89L110.53090909090909,89L110.62981818181818,89L110.87709090909091,89L110.92654545454545,89L111.02545454545455,89L111.07490909090909,89L111.12436363636364,89L111.37163636363637,89L112.064,89L112.50909090909092,89L112.80581818181818,89L113.152,89L113.20145454545455,89L113.64654545454545,89L113.99272727272727,89L114.43781818181819,89L114.58618181818183,89L114.93236363636365,89L115.03127272727272,89L115.22909090909091,89L115.72363636363637,89L115.77309090909091,89L115.92145454545454,89L116.16872727272727,89L116.36654545454546,89L117.00945454545455,89L117.10836363636363,89L117.15781818181819,89L117.45454545454545,89L117.504,89L117.55345454545454,89L117.65236363636365,89L117.75127272727272,89L118.34472727272727,89L119.23490909090908,89L119.53163636363635,89L119.87781818181818,89L120.17454545454545,89L120.37236363636363,89L120.47127272727273,89L120.57018181818182,89L120.86690909090909,89L121.01527272727273,89L121.11418181818182,89L121.26254545454546,89L121.41090909090909,89L121.55927272727273,89L122.00436363636364,89L122.10327272727272,89L122.69672727272727,89L122.74618181818181,89L122.79563636363636,89L123.488,89L123.68581818181818,89L123.88363636363636,89L124.08145454545455,89L124.13090909090909,89L124.27927272727274,89L124.37818181818182,89L124.4770909090909,89L124.87272727272727,89L124.97163636363636,89L125.12,89L125.26836363636363,89L125.41672727272727,89L125.51563636363636,89L125.664,89L125.81236363636363,89L126.60363636363637,89L126.94981818181817,89L127.1970909090909,89L127.24654545454545,89L127.296,89L127.3949090909091,89L127.44436363636363,89L127.54327272727272,89L127.64218181818183,89L127.83999999999999,89L128.03781818181818,89L128.2850909090909,89L128.384,89L128.73018181818182,89L128.8290909090909,89L128.87854545454545,89L129.12581818181818,89L129.32363636363635,89L129.57090909090908,89L129.6698181818182,89L129.7192727272727,89L130.21381818181817,89L130.26327272727272,89L130.4610909090909,89L130.60945454545453,89L130.75781818181818,89L130.80727272727273,89L130.95563636363636,89L131.0050909090909,89L131.10399999999998,89L131.35127272727271,89L131.40072727272727,89L131.7469090909091,89L131.79636363636365,89L131.99418181818183,89L132.0930909090909,89L132.192,89L132.38981818181819,89L132.88436363636364,89L132.98327272727272,89L133.08218181818182,89L133.13163636363637,89L133.32945454545455,89L133.47781818181818,89L133.87345454545454,89L134.0712727272727,89L134.21963636363637,89L134.76363636363638,89L134.96145454545453,89L135.06036363636363,89L135.30763636363636,89L135.3570909090909,89L135.456,89L135.5549090909091,89L135.60436363636364,89L135.70327272727272,89L135.80218181818182,89L135.85163636363635,89L136.04945454545455,89L136.19781818181818,89L136.34618181818183,89L136.59345454545453,89L137.1869090909091,89L137.38472727272728,89L137.5330909090909,89L138.02763636363636,89L138.32436363636364,89L138.37381818181817,89L138.47272727272727,89L138.62109090909092,89L138.76945454545455,89L138.81890909090907,89L138.86836363636363,89L139.36290909090908,89L139.41236363636364,89L139.46181818181816,89L139.56072727272726,89L140.15418181818183,89L140.20363636363638,89L140.25309090909093,89L140.30254545454545,89L140.6981818181818,89L141.14327272727272,89L141.984,89L142.67636363636365,89L142.82472727272727,89L142.8741818181818,89L142.92363636363638,89L143.02254545454545,89L143.4181818181818,89L143.5170909090909,89L143.7149090909091,89L144.20945454545455,89L144.60509090909093,89L144.65454545454546,89L145.19854545454547,89L145.5941818181818,89L145.8909090909091,89L145.94036363636363,89L146.03927272727273,89L146.1381818181818,89L146.38545454545456,89L147.3250909090909,89L147.424,89L147.62181818181818,89L147.67127272727274,89L148.16581818181817,89L148.26472727272727,89L148.4130909090909,89L148.46254545454548,89L148.512,89L149.00654545454546,89L149.056,89L149.20436363636364,89L149.3032727272727,89L149.5010909090909,89L149.60000000000002,89L149.74836363636365,89L149.84727272727272,89L149.9461818181818,89L150.0450909090909,89L150.4901818181818,89L150.68800000000002,89L150.8858181818182,89L150.98472727272727,89L151.1330909090909,89L151.28145454545455,89L151.5781818181818,89L151.62763636363636,89L151.82545454545456,89L151.9738181818182,89L152.12218181818182,89L152.2210909090909,89L152.66618181818183,89L152.81454545454545,89L152.864,89L152.91345454545456,89L152.9629090909091,89L153.11127272727273,89L153.3090909090909,89L153.6058181818182,89L153.65527272727272,89L153.80363636363637,89L154.19927272727273,89L154.44654545454546,89L154.5949090909091,89L154.74327272727274,89L154.79272727272726,89L155.08945454545457,89L155.18836363636365,89L155.4850909090909,89L155.63345454545455,89L155.78181818181818,89L155.83127272727273,89L156.0290909090909,89L156.96872727272728,89L157.16654545454546,89L157.26545454545453,89L157.51272727272726,89L157.76,89L158.4029090909091,89L158.60072727272728,89L158.7490909090909,89L159.49090909090907,89L160.03490909090908,89L160.08436363636366,89L160.2327272727273,89L160.52945454545454,89L160.87563636363637,89L160.9250909090909,89L160.97454545454545,89L161.024,89L161.07345454545452,89L161.12290909090908,89L161.51854545454546,89L162.656,89L162.70545454545453,89L162.75490909090908,89L163.1010909090909,89L163.6450909090909,89L163.744,89L164.33745454545453,89L164.38690909090909,89L164.53527272727274,89L164.63418181818182,89L164.68363636363637,89L164.78254545454544,89L165.72218181818184,89L165.96945454545454,89L166.11781818181817,89L166.26618181818182,89L166.71127272727273,89L166.76072727272728,89L167.05745454545453,89L167.15636363636364,89L167.20581818181816,89L167.50254545454544,89L167.6509090909091,89L167.70036363636362,89L167.94763636363638,89L168.04654545454545,89L168.14545454545453,89L168.29381818181818,89L168.34327272727273,89L168.7389090909091,89L168.98618181818182,89L169.08509090909092,89L169.13454545454545,89L169.184,89L169.728,89L170.22254545454547,89L170.61818181818182,89L171.4589090909091,89L171.70618181818182,89L171.80509090909092,89L171.85454545454547,89L172.0029090909091,89L172.49745454545456,89L172.79418181818184,89L172.992,89L173.23927272727272,89L173.33818181818182,89L173.43709090909093,89L173.536,89L173.63490909090908,89L173.83272727272725,89L173.88218181818183,89L174.03054545454546,89L174.3272727272727,89L174.42618181818185,89L174.57454545454547,89L174.9701818181818,89L175.06909090909093,89L175.11854545454545,89L175.168,89L175.56363636363636,89L176.30545454545455,89L176.40436363636363,89L176.50327272727273,89L176.6021818181818,89L176.7010909090909,89L177.14618181818182,89L177.344,89L177.4429090909091,89L177.98690909090908,89L178.18472727272726,89L178.67927272727272,89L179.12436363636363,89L179.37163636363636,89L179.7178181818182,89L179.86618181818181,89L179.91563636363634,89L180.21236363636365,89L180.26181818181817,89L180.36072727272727,89L180.50909090909093,89L180.75636363636363,89L180.90472727272726,89L180.9541818181818,89L181.05309090909088,89L181.84436363636365,89L182.19054545454546,89L182.38836363636364,89L182.73454545454547,89L182.78400000000002,89L183.13018181818182,89L183.27854545454548,89L184.46545454545455,89L184.61381818181817,89L184.71272727272728,89L184.96,89L185.10836363636363,89L185.1578181818182,89L185.25672727272726,89L185.3061818181818,89L185.65236363636365,89L185.75127272727272,89L185.85018181818182,89L186.29527272727273,89L186.54254545454543,89L186.98763636363637,89L187.08654545454544,89L187.18545454545455,89L187.38327272727273,89L187.53163636363635,89L188.17454545454544,89L188.224,89L188.27345454545457,89L188.57018181818182,89L188.96581818181818,89L189.26254545454543,89L189.31199999999998,89L189.36145454545456,89L189.55927272727274,89L189.80654545454544,89L190.15272727272728,89L190.54836363636366,89L190.7461818181818,89L190.944,89L191.0429090909091,89L191.33963636363637,89L191.488,89L191.5869090909091,89L191.68581818181818,89L191.78472727272728,89L191.9330909090909,89L192.18036363636364,89L192.7738181818182,89L193.0210909090909,89L193.26836363636366,89L194.15854545454545,89L194.35636363636365,89L194.50472727272728,89L194.75199999999998,89L195.0487272727273,89L195.0981818181818,89L195.296,89L195.39490909090907,89L195.69163636363638,89L195.7410909090909,89L196.03781818181818,89L196.384,89L196.68072727272727,89L196.8290909090909,89L197.1258181818182,89L197.6698181818182,89L197.7687272727273,89L198.11490909090907,89L198.26327272727275,89L198.36218181818182,89L198.41163636363638,89L198.51054545454545,89L198.7578181818182,89L199.54909090909092,89L199.648,89L199.69745454545455,89L199.89527272727275,89L199.94472727272728,89L200.14254545454546,89L200.24145454545453,89L200.53818181818184,89L200.58763636363636,89L200.736,89L200.93381818181817,89L201.52727272727273,89L201.77454545454546,89L201.9229090909091,89L202.368,89L202.41745454545455,89L202.71418181818183,89L202.76363636363638,89L203.456,89L203.65381818181817,89L203.7527272727273,89L203.85163636363637,89L204,89L204.14836363636363,89L204.59345454545453,89L204.89018181818182,89L204.98909090909092,89L205.5330909090909,89L205.58254545454545,89L205.8792727272727,89L206.22545454545454,89L207.41236363636364,89L207.46181818181816,89L207.56072727272726,89L207.70909090909092,89L207.808,89L208.84654545454546,89L208.9949090909091,89L209.19272727272727,89L209.2421818181818,89L209.29163636363637,89L209.58836363636362,89L209.73672727272725,89L209.83563636363638,89L209.93454545454546,89L210.28072727272726,89L210.47854545454547,89L210.6269090909091,89L210.8741818181818,89L211.26981818181818,89L211.4676363636364,89L211.56654545454546,89L211.66545454545454,89L212.01163636363634,89L212.30836363636362,89L212.40727272727273,89L212.55563636363635,89L213.09963636363636,89L213.14909090909092,89L213.3469090909091,89L213.5941818181818,89L213.69309090909093,89L214.18763636363636,89L214.28654545454546,89L214.38545454545456,89L215.02836363636365,89L215.3250909090909,89L215.81963636363636,89L216.0669090909091,89L216.4130909090909,89L216.56145454545455,89L216.66036363636363,89L217.64945454545455,89L217.6989090909091,89L217.74836363636365,89L217.99563636363635,89L218.09454545454543,89L218.39127272727274,89L218.58909090909088,89L218.93527272727272,89L218.98472727272727,89L219.03418181818182,89L219.28145454545455,89L219.3309090909091,89L219.52872727272728,89L220.07272727272726,89L220.36945454545454,89L220.66618181818183,89L220.81454545454545,89L220.91345454545456,89L221.35854545454544,89L221.55636363636364,89L221.75418181818182,89L221.8530909090909,89L222.10036363636365,89L222.2981818181818,89L222.3970909090909,89L222.54545454545456,89L222.79272727272726,89L222.99054545454544,89L223.04,89L223.1389090909091,89L223.58399999999997,89L223.63345454545455,89L224.17745454545454,89L224.27636363636364,89L224.3258181818182,89L224.672,89L224.7709090909091,89L224.82036363636365,89L224.86981818181818,89L224.91927272727273,89L225.1170909090909,89L225.21599999999998,89L226.304,89L226.45236363636366,89L226.89745454545454,89L227.0458181818182,89L227.14472727272727,89L227.392,89L227.44145454545452,89L227.54036363636365,89L227.93599999999998,89L228.18327272727274,89L228.52945454545454,89L229.91418181818182,89L230.26036363636365,89L230.80436363636363,89L231.05163636363636,89L231.49672727272727,89L231.54618181818182,89L232.04072727272728,89L232.09018181818183,89L232.13963636363636,89L232.23854545454546,89L232.33745454545453,89L232.43636363636364,89L232.4858181818182,89L232.53527272727274,89L232.63418181818182,89L233.52436363636363,89L233.77163636363636,89L234.0189090909091,89L234.16727272727275,89L234.31563636363637,89L234.56290909090907,89L235.10690909090908,89L235.552,89L235.70036363636362,89L235.74981818181817,89L236.19490909090908,89L236.49163636363636,89L237.23345454545455,89L237.28290909090907,89L237.57963636363638,89L237.77745454545453,89L237.92581818181816,89L238.22254545454547,89L238.32145454545454,89L238.76654545454545,89L238.96436363636363,89L239.2610909090909,89L239.50836363636364,89L239.80509090909092,89L240.0029090909091,89L240.25018181818183,89L240.59636363636363,89L240.79418181818184,89L241.23927272727272,89L241.38763636363637,89L241.9810909090909,89L242.3272727272727,89L242.47563636363637,89L242.57454545454547,89L242.624,89L242.82181818181817,89L242.87127272727272,89L242.92072727272725,89L243.5141818181818,89L243.8109090909091,89L243.86036363636364,89L243.95927272727272,89L244.20654545454545,89L244.256,89L244.40436363636363,89L244.7010909090909,89L244.8989090909091,89L245.24509090909092,89L245.73963636363635,89L246.03636363636363,89L246.2341818181818,89L246.38254545454546,89L246.7781818181818,89L246.87709090909092,89L247.52,89L247.7178181818182,89L247.7672727272727,89L248.7069090909091,89L248.75636363636363,89L248.90472727272726,89L248.9541818181818,89L249.2509090909091,89L249.3498181818182,89L249.74545454545455,89L249.84436363636365,89L249.89381818181818,89L250.53672727272726,89L250.5861818181818,89L250.63563636363637,89L250.6850909090909,89L250.93236363636365,89L251.08072727272727,89L251.13018181818182,89L251.27854545454548,89L251.37745454545455,89L251.82254545454546,89L251.9709090909091,89L252.0698181818182,89L252.16872727272727,89L252.7621818181818,89L252.96,89" style="fill: none;" fill="none"></path></g></g></g></g></g></g><g transform="translate(58, 178)" clip-path="url(#clip_1)"><clipPath id="clip_1"><rect width="272" height="22"></rect></clipPath><g><g><line x1="0" y1="0" x2="0" y2="5" style="visibility: inherit;" fill="rgb(0, 0, 0)" stroke="rgb(204, 204, 204)" stroke-width="1px"></line><line x1="24.727272727272727" y1="0" x2="24.727272727272727" y2="5" style="visibility: inherit;" fill="rgb(0, 0, 0)" stroke="rgb(204, 204, 204)" stroke-width="1px"></line><line x1="49.45454545454545" y1="0" x2="49.45454545454545" y2="5" style="visibility: inherit;" fill="rgb(0, 0, 0)" stroke="rgb(204, 204, 204)" stroke-width="1px"></line><line x1="74.18181818181817" y1="0" x2="74.18181818181817" y2="5" style="visibility: inherit;" fill="rgb(0, 0, 0)" stroke="rgb(204, 204, 204)" stroke-width="1px"></line><line x1="98.9090909090909" y1="0" x2="98.9090909090909" y2="5" style="visibility: inherit;" fill="rgb(0, 0, 0)" stroke="rgb(204, 204, 204)" stroke-width="1px"></line><line x1="123.63636363636363" y1="0" x2="123.63636363636363" y2="5" style="visibility: inherit;" fill="rgb(0, 0, 0)" stroke="rgb(204, 204, 204)" stroke-width="1px"></line><line x1="148.36363636363635" y1="0" x2="148.36363636363635" y2="5" style="visibility: inherit;" fill="rgb(0, 0, 0)" stroke="rgb(204, 204, 204)" stroke-width="1px"></line><line x1="173.0909090909091" y1="0" x2="173.0909090909091" y2="5" style="visibility: inherit;" fill="rgb(0, 0, 0)" stroke="rgb(204, 204, 204)" stroke-width="1px"></line><line x1="197.8181818181818" y1="0" x2="197.8181818181818" y2="5" style="visibility: inherit;" fill="rgb(0, 0, 0)" stroke="rgb(204, 204, 204)" stroke-width="1px"></line><line x1="222.54545454545456" y1="0" x2="222.54545454545456" y2="5" style="visibility: inherit;" fill="rgb(0, 0, 0)" stroke="rgb(204, 204, 204)" stroke-width="1px"></line><line x1="247.27272727272725" y1="0" x2="247.27272727272725" y2="5" style="visibility: inherit;" fill="rgb(0, 0, 0)" stroke="rgb(204, 204, 204)" stroke-width="1px"></line><line x1="272" y1="0" x2="272" y2="5" style="visibility: inherit;" fill="rgb(0, 0, 0)" stroke="rgb(204, 204, 204)" stroke-width="1px"></line></g><g transform="translate(0, 8)"><text x="0" y="0" dx="0em" dy="0.95em" style="text-anchor: middle; visibility: hidden; font-family: &quot;Helvetica Neue&quot;, sans-serif; font-size: 12px; font-weight: 200;" fill="rgb(50, 49, 63)" stroke="none" stroke-width="1px">-500</text><text x="24.727272727272727" y="0" dx="0em" dy="0.95em" style="text-anchor: middle; visibility: inherit; font-family: &quot;Helvetica Neue&quot;, sans-serif; font-size: 12px; font-weight: 200;" fill="rgb(50, 49, 63)" stroke="none" stroke-width="1px">0</text><text x="49.45454545454545" y="0" dx="0em" dy="0.95em" style="text-anchor: middle; visibility: hidden; font-family: &quot;Helvetica Neue&quot;, sans-serif; font-size: 12px; font-weight: 200;" fill="rgb(50, 49, 63)" stroke="none" stroke-width="1px">500</text><text x="74.18181818181817" y="0" dx="0em" dy="0.95em" style="text-anchor: middle; visibility: inherit; font-family: &quot;Helvetica Neue&quot;, sans-serif; font-size: 12px; font-weight: 200;" fill="rgb(50, 49, 63)" stroke="none" stroke-width="1px">1k</text><text x="98.9090909090909" y="0" dx="0em" dy="0.95em" style="text-anchor: middle; visibility: hidden; font-family: &quot;Helvetica Neue&quot;, sans-serif; font-size: 12px; font-weight: 200;" fill="rgb(50, 49, 63)" stroke="none" stroke-width="1px">1.5k</text><text x="123.63636363636363" y="0" dx="0em" dy="0.95em" style="text-anchor: middle; visibility: inherit; font-family: &quot;Helvetica Neue&quot;, sans-serif; font-size: 12px; font-weight: 200;" fill="rgb(50, 49, 63)" stroke="none" stroke-width="1px">2k</text><text x="148.36363636363635" y="0" dx="0em" dy="0.95em" style="text-anchor: middle; visibility: hidden; font-family: &quot;Helvetica Neue&quot;, sans-serif; font-size: 12px; font-weight: 200;" fill="rgb(50, 49, 63)" stroke="none" stroke-width="1px">2.5k</text><text x="173.0909090909091" y="0" dx="0em" dy="0.95em" style="text-anchor: middle; visibility: inherit; font-family: &quot;Helvetica Neue&quot;, sans-serif; font-size: 12px; font-weight: 200;" fill="rgb(50, 49, 63)" stroke="none" stroke-width="1px">3k</text><text x="197.8181818181818" y="0" dx="0em" dy="0.95em" style="text-anchor: middle; visibility: hidden; font-family: &quot;Helvetica Neue&quot;, sans-serif; font-size: 12px; font-weight: 200;" fill="rgb(50, 49, 63)" stroke="none" stroke-width="1px">3.5k</text><text x="222.54545454545456" y="0" dx="0em" dy="0.95em" style="text-anchor: middle; visibility: inherit; font-family: &quot;Helvetica Neue&quot;, sans-serif; font-size: 12px; font-weight: 200;" fill="rgb(50, 49, 63)" stroke="none" stroke-width="1px">4k</text><text x="247.27272727272725" y="0" dx="0em" dy="0.95em" style="text-anchor: middle; visibility: hidden; font-family: &quot;Helvetica Neue&quot;, sans-serif; font-size: 12px; font-weight: 200;" fill="rgb(50, 49, 63)" stroke="none" stroke-width="1px">4.5k</text><text x="272" y="0" dx="0em" dy="0.95em" style="text-anchor: middle; visibility: hidden; font-family: &quot;Helvetica Neue&quot;, sans-serif; font-size: 12px; font-weight: 200;" fill="rgb(50, 49, 63)" stroke="none" stroke-width="1px">5k</text></g><line x1="0" y1="0" x2="272" y2="0" fill="rgb(0, 0, 0)" stroke="rgb(204, 204, 204)" stroke-width="1px"></line></g></g></g></g></svg>