<svg viewBox="0 0 1498 400" xmlns="http://www.w3.org/2000/svg"><g><g><g><g><g><line x1="58" y1="378" x2="53" y2="378" style="visibility: inherit;" fill="rgb(0, 0, 0)" stroke="rgb(204, 204, 204)" stroke-width="1px"></line><line x1="58" y1="348.9230769230769" x2="53" y2="348.9230769230769" style="visibility: inherit;" fill="rgb(0, 0, 0)" stroke="rgb(204, 204, 204)" stroke-width="1px"></line><line x1="58" y1="319.84615384615387" x2="53" y2="319.84615384615387" style="visibility: inherit;" fill="rgb(0, 0, 0)" stroke="rgb(204, 204, 204)" stroke-width="1px"></line><line x1="58" y1="290.7692307692308" x2="53" y2="290.7692307692308" style="visibility: inherit;" fill="rgb(0, 0, 0)" stroke="rgb(204, 204, 204)" stroke-width="1px"></line><line x1="58" y1="261.6923076923077" x2="53" y2="261.6923076923077" style="visibility: inherit;" fill="rgb(0, 0, 0)" stroke="rgb(204, 204, 204)" stroke-width="1px"></line><line x1="58" y1="232.61538461538456" x2="53" y2="232.61538461538456" style="visibility: inherit;" fill="rgb(0, 0, 0)" stroke="rgb(204, 204, 204)" stroke-width="1px"></line><line x1="58" y1="203.5384615384616" x2="53" y2="203.5384615384616" style="visibility: inherit;" fill="rgb(0, 0, 0)" stroke="rgb(204, 204, 204)" stroke-width="1px"></line><line x1="58" y1="174.46153846153848" x2="53" y2="174.46153846153848" style="visibility: inherit;" fill="rgb(0, 0, 0)" stroke="rgb(204, 204, 204)" stroke-width="1px"></line><line x1="58" y1="145.38461538461536" x2="53" y2="145.38461538461536" style="visibility: inherit;" fill="rgb(0, 0, 0)" stroke="rgb(204, 204, 204)" stroke-width="1px"></line><line x1="58" y1="116.30769230769226" x2="53" y2="116.30769230769226" style="visibility: inherit;" fill="rgb(0, 0, 0)" stroke="rgb(204, 204, 204)" stroke-width="1px"></line><line x1="58" y1="87.23076923076917" x2="53" y2="87.23076923076917" style="visibility: inherit;" fill="rgb(0, 0, 0)" stroke="rgb(204, 204, 204)" stroke-width="1px"></line><line x1="58" y1="58.15384615384619" x2="53" y2="58.15384615384619" style="visibility: inherit;" fill="rgb(0, 0, 0)" stroke="rgb(204, 204, 204)" stroke-width="1px"></line><line x1="58" y1="29.076923076923094" x2="53" y2="29.076923076923094" style="visibility: inherit;" fill="rgb(0, 0, 0)" stroke="rgb(204, 204, 204)" stroke-width="1px"></line><line x1="58" y1="0" x2="53" y2="0" style="visibility: inherit;" fill="rgb(0, 0, 0)" stroke="rgb(204, 204, 204)" stroke-width="1px"></line></g><g transform="translate(48, 0)"><text x="0" y="378" dx="0em" dy="0.3em" style="text-anchor: end; visibility: hidden; font-family: &quot;Helvetica Neue&quot;, sans-serif; font-size: 12px; font-weight: 200;" fill="rgb(50, 49, 63)" stroke="none" stroke-width="1px">0.85</text><text x="0" y="348.9230769230769" dx="0em" dy="0.3em" style="text-anchor: end; visibility: inherit; font-family: &quot;Helvetica Neue&quot;, sans-serif; font-size: 12px; font-weight: 200;" fill="rgb(50, 49, 63)" stroke="none" stroke-width="1px">0.9</text><text x="0" y="319.84615384615387" dx="0em" dy="0.3em" style="text-anchor: end; visibility: inherit; font-family: &quot;Helvetica Neue&quot;, sans-serif; font-size: 12px; font-weight: 200;" fill="rgb(50, 49, 63)" stroke="none" stroke-width="1px">0.95</text><text x="0" y="290.7692307692308" dx="0em" dy="0.3em" style="text-anchor: end; visibility: inherit; font-family: &quot;Helvetica Neue&quot;, sans-serif; font-size: 12px; font-weight: 200;" fill="rgb(50, 49, 63)" stroke="none" stroke-width="1px">1</text><text x="0" y="261.6923076923077" dx="0em" dy="0.3em" style="text-anchor: end; visibility: inherit; font-family: &quot;Helvetica Neue&quot;, sans-serif; font-size: 12px; font-weight: 200;" fill="rgb(50, 49, 63)" stroke="none" stroke-width="1px">1.05</text><text x="0" y="232.61538461538456" dx="0em" dy="0.3em" style="text-anchor: end; visibility: inherit; font-family: &quot;Helvetica Neue&quot;, sans-serif; font-size: 12px; font-weight: 200;" fill="rgb(50, 49, 63)" stroke="none" stroke-width="1px">1.1</text><text x="0" y="203.5384615384616" dx="0em" dy="0.3em" style="text-anchor: end; visibility: inherit; font-family: &quot;Helvetica Neue&quot;, sans-serif; font-size: 12px; font-weight: 200;" fill="rgb(50, 49, 63)" stroke="none" stroke-width="1px">1.15</text><text x="0" y="174.46153846153848" dx="0em" dy="0.3em" style="text-anchor: end; visibility: inherit; font-family: &quot;Helvetica Neue&quot;, sans-serif; font-size: 12px; font-weight: 200;" fill="rgb(50, 49, 63)" stroke="none" stroke-width="1px">1.2</text><text x="0" y="145.38461538461536" dx="0em" dy="0.3em" style="text-anchor: end; visibility: inherit; font-family: &quot;Helvetica Neue&quot;, sans-serif; font-size: 12px; font-weight: 200;" fill="rgb(50, 49, 63)" stroke="none" stroke-width="1px">1.25</text><text x="0" y="116.30769230769226" dx="0em" dy="0.3em" style="text-anchor: end; visibility: inherit; font-family: &quot;Helvetica Neue&quot;, sans-serif; font-size: 12px; font-weight: 200;" fill="rgb(50, 49, 63)" stroke="none" stroke-width="1px">1.3</text><text x="0" y="87.23076923076917" dx="0em" dy="0.3em" style="text-anchor: end; visibility: inherit; font-family: &quot;Helvetica Neue&quot;, sans-serif; font-size: 12px; font-weight: 200;" fill="rgb(50, 49, 63)" stroke="none" stroke-width="1px">1.35</text><text x="0" y="58.15384615384619" dx="0em" dy="0.3em" style="text-anchor: end; visibility: inherit; font-family: &quot;Helvetica Neue&quot;, sans-serif; font-size: 12px; font-weight: 200;" fill="rgb(50, 49, 63)" stroke="none" stroke-width="1px">1.4</text><text x="0" y="29.076923076923094" dx="0em" dy="0.3em" style="text-anchor: end; visibility: inherit; font-family: &quot;Helvetica Neue&quot;, sans-serif; font-size: 12px; font-weight: 200;" fill="rgb(50, 49, 63)" stroke="none" stroke-width="1px">1.45</text><text x="0" y="0" dx="0em" dy="0.3em" style="text-anchor: end; visibility: hidden; font-family: &quot;Helvetica Neue&quot;, sans-serif; font-size: 12px; font-weight: 200;" fill="rgb(50, 49, 63)" stroke="none" stroke-width="1px">1.5</text></g><line x1="58" y1="0" x2="58" y2="378" fill="rgb(0, 0, 0)" stroke="rgb(204, 204, 204)" stroke-width="1px"></line></g></g><g transform="translate(58, 0)" clip-path="url(#clip_0)"><clipPath id="clip_0"><rect width="1440" height="378"></rect></clipPath><g><g><g><line x1="0" y1="0" x2="0" y2="378" fill="rgb(0, 0, 0)" stroke="rgb(60, 60, 60)" stroke-width="1px" opacity="0.25"></line><line x1="180" y1="0" x2="180" y2="378" fill="rgb(0, 0, 0)" stroke="rgb(60, 60, 60)" stroke-width="1px" opacity="0.25"></line><line x1="360" y1="0" x2="360" y2="378" fill="rgb(0, 0, 0)" stroke="rgb(60, 60, 60)" stroke-width="1px" opacity="0.25"></line><line x1="540" y1="0" x2="540" y2="378" fill="rgb(0, 0, 0)" stroke="rgb(60, 60, 60)" stroke-width="1px" opacity="0.25"></line><line x1="720" y1="0" x2="720" y2="378" fill="rgb(0, 0, 0)" stroke="rgb(60, 60, 60)" stroke-width="1px" opacity="0.25"></line><line x1="900" y1="0" x2="900" y2="378" fill="rgb(0, 0, 0)" stroke="rgb(60, 60, 60)" stroke-width="1px" opacity="0.25"></line><line x1="1080" y1="0" x2="1080" y2="378" fill="rgb(0, 0, 0)" stroke="rgb(60, 60, 60)" stroke-width="1px" opacity="0.25"></line><line x1="1260" y1="0" x2="1260" y2="378" fill="rgb(0, 0, 0)" stroke="rgb(60, 60, 60)" stroke-width="1px" opacity="0.25"></line><line x1="1440" y1="0" x2="1440" y2="378" fill="rgb(0, 0, 0)" stroke="rgb(60, 60, 60)" stroke-width="1px" opacity="0.25"></line></g><g><line x1="0" y1="378" x2="1440" y2="378" fill="rgb(0, 0, 0)" stroke="rgb(60, 60, 60)" stroke-width="1px" opacity="0.25"></line><line x1="0" y1="348.9230769230769" x2="1440" y2="348.9230769230769" fill="rgb(0, 0, 0)" stroke="rgb(60, 60, 60)" stroke-width="1px" opacity="0.25"></line><line x1="0" y1="319.84615384615387" x2="1440" y2="319.84615384615387" fill="rgb(0, 0, 0)" stroke="rgb(60, 60, 60)" stroke-width="1px" opacity="0.25"></line><line x1="0" y1="290.7692307692308" x2="1440" y2="290.7692307692308" fill="rgb(0, 0, 0)" stroke="rgb(60, 60, 60)" stroke-width="1px" opacity="0.25"></line><line x1="0" y1="261.6923076923077" x2="1440" y2="261.6923076923077" fill="rgb(0, 0, 0)" stroke="rgb(60, 60, 60)" stroke-width="1px" opacity="0.25"></line><line x1="0" y1="232.61538461538456" x2="1440" y2="232.61538461538456" fill="rgb(0, 0, 0)" stroke="rgb(60, 60, 60)" stroke-width="1px" opacity="0.25"></line><line x1="0" y1="203.5384615384616" x2="1440" y2="203.5384615384616" fill="rgb(0, 0, 0)" stroke="rgb(60, 60, 60)" stroke-width="1px" opacity="0.25"></line><line x1="0" y1="174.46153846153848" x2="1440" y2="174.46153846153848" fill="rgb(0, 0, 0)" stroke="rgb(60, 60, 60)" stroke-width="1px" opacity="0.25"></line><line x1="0" y1="145.38461538461536" x2="1440" y2="145.38461538461536" fill="rgb(0, 0, 0)" stroke="rgb(60, 60, 60)" stroke-width="1px" opacity="0.25"></line><line x1="0" y1="116.30769230769226" x2="1440" y2="116.30769230769226" fill="rgb(0, 0, 0)" stroke="rgb(60, 60, 60)" stroke-width="1px" opacity="0.25"></line><line x1="0" y1="87.23076923076917" x2="1440" y2="87.23076923076917" fill="rgb(0, 0, 0)" stroke="rgb(60, 60, 60)" stroke-width="1px" opacity="0.25"></line><line x1="0" y1="58.15384615384619" x2="1440" y2="58.15384615384619" fill="rgb(0, 0, 0)" stroke="rgb(60, 60, 60)" stroke-width="1px" opacity="0.25"></line><line x1="0" y1="29.076923076923094" x2="1440" y2="29.076923076923094" fill="rgb(0, 0, 0)" stroke="rgb(60, 60, 60)" stroke-width="1px" opacity="0.25"></line><line x1="0" y1="0" x2="1440" y2="0" fill="rgb(0, 0, 0)" stroke="rgb(60, 60, 60)" stroke-width="1px" opacity="0.25"></line></g></g></g><g><g><line x1="0" y1="872.3076923076924" x2="1440" y2="872.3076923076924" fill="rgb(0, 0, 0)" stroke="rgb(153, 153, 153)" stroke-width="1.5px"></line></g></g><g><g><line x1="180" y1="0" x2="180" y2="378" fill="rgb(0, 0, 0)" stroke="rgb(153, 153, 153)" stroke-width="1.5px"></line></g></g><g><g><g><g><g><path stroke="rgb(255, 112, 67)" stroke-width="2px" d="M181.8,68.72498879065881L186.48000000000002,82.50337683237518L188.64000000000001,84.13996350634233L194.4,93.70580361979046L195.12,104.41742033646113L195.84,102.29019655320872L196.20000000000002,97.92800568768132L196.92000000000002,95.93064496035976L199.08,97.58312334783818L200.16000000000003,98.43650247202498L203.39999999999998,93.22719330648488L205.55999999999997,93.40778238435968L206.27999999999997,108.27607940172572L206.64,94.58746805371635L208.44,90.60242741146055L211.32,89.57532995809163L213.84,101.05462514931162L216.72,97.67665874324814L217.79999999999998,86.03616125893763L218.16,90.96222370989238L220.68,89.43787991034469L222.48,106.01023127165041L225.36,110.74057010536058L226.8,95.46179526610774L230.04,91.5752825631626L234,92.59768141141166L235.8,86.62137592116773L236.88000000000002,98.80095010927397L240.12,100.9324002036567L240.48000000000002,114.96667286840739L244.08,111.41950083142717L245.88000000000002,112.47414869704068L246.60000000000002,90.99094280685159L246.96,84.46739258695334L248.39999999999998,92.99847625316738L251.27999999999997,91.84464731038702L254.16,89.29638674739624L254.51999999999998,96.68875408234737L256.32,102.67391621419841L260.28,108.42647715179237L262.44,96.8121569104693L264.24,113.0317908957486L265.32,121.7304933080365L269.64,114.97646443598802L271.8,115.37386653207068L273.6,106.87258737124563L274.68,110.00987840576545L276.12,99.65005026733843L277.56,93.87755472110695L278.28000000000003,115.88204298697929L285.12,99.66629123940282L286.92,100.69111118468464L287.28000000000003,100.34549436513515L289.08000000000004,113.1536866243531L290.88,105.15780660374782L291.6,111.34556750482523L294.47999999999996,139.1244069889667L294.84,130.4148455859194L297.35999999999996,131.07797208755105L297.71999999999997,134.48862003513307L298.8,124.76776402453504L302.03999999999996,129.76824663986585L304.92,133.0625842249521L310.68,118.23189134354612L312.12,126.69536934193181L314.28,151.4893423303506L315.72,187.83422611401198L316.44,190.20326259007567L321.12,196.81968989258397L326.88,199.7721079724155L331.56,203.49280544694838L331.92,212.0594574357433L332.64000000000004,237.1405294559997L334.8,228.19286910980404L338.03999999999996,230.77510497559166L338.76,273.4449013566319L339.12,256.18291685415903L340.2,244.76078650705483L342.35999999999996,266.2259627477857L345.59999999999997,251.2631526280134L346.68,228.37616905319206L347.03999999999996,275.01870006860105L350.64,261.2610608509093L356.04,261.1375261096855L356.76,298.76496961361215L357.48,270.24013877758546L362.52,245.29289812814233L364.32,237.71016695986503L365.04,236.59232704711602L366.11999999999995,232.98865774748168L368.99999999999994,235.7889462494881L371.15999999999997,229.93467967690145L371.88,244.84884218654003L372.96000000000004,247.1062221855625L375.12,255.23551203424717L376.91999999999996,252.51176171531807L380.52,246.01141062580473L381.23999999999995,215.39966635228947L382.68,213.44279511166667L384.84,200.8927798748519L386.28,227.81749482451298L388.44,184.58907187052841L389.15999999999997,191.92500414338826L389.52000000000004,204.34358688709025L390.24,206.6521961151267L390.96000000000004,223.55333041486L391.32,218.08428739005743L393.12,213.28048925602766L393.48,205.0706282363747L396.72,224.91007663829225L398.88000000000005,243.67559627124905L399.6,239.099962078874L401.4,222.23215193581032L403.20000000000005,235.6777061606411L403.92,235.2305961049728L408.23999999999995,259.140597330436L410.76,220.15822848493156L411.11999999999995,232.51311095429656L411.84,226.51188829052967L412.55999999999995,259.2860783249647L412.92,236.6156226783378L413.64,168.8584896007959L417.96000000000004,180.4510017405895L419.03999999999996,197.4188661493811L420.47999999999996,210.5328551757033L421.56,215.13771492591295L422.64,210.21586723445023L424.08,218.00965345599843L424.44,222.34537410602277L425.88,221.35911012715977L427.68,233.2320316045786L428.04,217.2146160433887L431.64000000000004,218.8480093451307L433.08000000000004,222.7464524729232L434.15999999999997,223.841859403488L437.03999999999996,196.29656015644073L438.48,215.68852149730685L439.56000000000006,191.60468420740048L439.92,206.2495234643629L440.28000000000003,209.93001867926003L442.8,219.3588805770628L444.96,234.44764085680146L445.68,198.05838832713488L446.04,184.94900074506955L447.48,157.08014462992188L448.92,186.6468524886372L450,195.50423680540058L450.35999999999996,207.6156577166913L450.72,191.76194514247535L452.16,192.83098165363805L455.4,173.78530102244687L456.84,186.3900787117535L457.2,190.48983946338012L457.55999999999995,196.44507939706912L458.28,188.08146560933903L458.64,200.11134388891875L460.8,215.7242529745397L462.24,195.00745343713328L462.59999999999997,201.9535129886997L463.32,203.87799272669153L464.03999999999996,205.49066784130898L465.12,183.82852727996195L465.47999999999996,198.57871071776495L465.84000000000003,188.3929552901936L466.2,173.46782593314L467.28000000000003,162.40258499704595L468.72,171.67688979616358L470.52,174.20820822203981L470.88,173.38376602232577L471.23999999999995,177.3831216046909L473.4,181.10107056061167L477,190.26065827006397L478.08000000000004,213.33357195108024L479.52000000000004,201.182604835875L480.96000000000004,187.56757972257932L481.68,183.46205090056418L483.48,180.51065937804134L492.12,188.89119165202757L492.84,210.25972376502028L493.20000000000005,228.16772951212025L494.64000000000004,200.2835138833727L495.35999999999996,219.8011408335918L496.79999999999995,216.09224834410225L497.52,203.23909026787018L500.4,206.59780928321499L502.55999999999995,203.20454266197936L503.99999999999994,198.36836043910657L506.52,219.31385091218314L506.88,206.1310354501232L507.24,213.5632265310696L507.59999999999997,221.00755558158681L509.40000000000003,216.72805471360428L510.12,207.23250640393067L511.2,226.47299477159518L511.56,221.60611419177698L512.28,211.25126294349542L515.16,203.38922643510833L515.52,208.3185208898453L516.6,213.0286836339954L519.12,169.8988809415057L520.2,193.69886428103356L523.4399999999999,194.24982895750796L524.16,190.69236868798134L524.88,184.93852859475615L525.96,194.54401954990118L526.3199999999999,173.9584323281322L529.5600000000001,186.80503167870208L529.92,191.91281264383667L531.36,179.7868120898045L531.72,204.2198423925733L532.08,191.94892197841878L532.44,209.8705337184797L533.88,189.02151937941264L534.24,182.42670748030872L535.32,197.20112817752576L535.68,189.41576923979557L538.56,181.68744169688773L540,190.08075983671736L540.72,194.88850579240184L541.44,178.8932686459639L541.8,199.7296523238652L545.04,181.42008101669936L546.12,177.97349199169597L549,169.07410770135579L549.7199999999999,179.48060418239322L551.16,155.56245197054247L551.52,183.17571202587823L553.3199999999999,153.71153818448354L555.84,131.00368697342492L559.8,143.8151240833282L560.52,160.20868043871945L562.68,133.17988916087103L563.76,126.7152254077211L564.48,159.29228054469078L565.9200000000001,173.13139214461034L567.36,176.25419005361186L568.08,166.79972721975162L569.88,140.86934852597102L570.24,127.52582641012887L570.6,119.3876355567237L573.48,138.5349937485851L575.64,128.8528111471285L577.08,145.29110126135961L577.44,140.68186055774729L577.8,142.13073630746436L581.0400000000001,133.32861620417515L582.84,141.7574576675922L587.88,152.3346516435899L588.6,139.01219496494187L595.8,129.64206934055616L596.16,133.30812890761277L597.6,151.1124414080066L597.96,132.56639546778516L598.3199999999999,144.32856467418821L604.8,122.10105195031187L606.6,134.4585841742905L609.12,150.39686335059676L609.48,144.01895660992983L611.64,147.73128313508164L612.36,134.52126913571578L614.16,132.50503243526808L614.88,140.63092670063466L615.6,143.28809781068279L617.04,155.92445252561495L623.52,145.82461798049437L624.24,146.1041639814682L624.96,149.6872742607446L627.84,149.74331002622966L628.9200000000001,132.31720661909387L631.0799999999999,134.35453668249713L631.8,135.39516512942762L632.52,134.27366676564498L632.88,127.00060436095694L633.9599999999999,134.12277490201208L635.76,138.9394726358624L638.64,151.6548933159207L641.16,148.14886570170128L643.3199999999999,163.83179877470536L644.76,161.77368599887893L645.12,174.0269538912914L645.48,177.1198770220401L645.84,183.51512886285414L648,159.27041715089868L651.6,190.5535966497921L652.32,175.0631114998662L653.4,177.66173716265268L653.76,163.72557485397866L654.84,205.10640858496637L657,199.72754804240301L657.72,208.52026239876847L658.8000000000001,198.09757033035564L659.88,187.05968516954556L660.96,204.71066769845396L661.3199999999999,193.78278791883005L667.8,176.7212196403831L671.76,186.5291525711608L673.2,200.46620816116106L678.6,206.84297961987872L679.68,211.1085893736306L680.04,195.13547087787802L680.76,224.80786952882073L681.12,221.3895217802056L688.3199999999999,217.88693528421607L688.6800000000001,204.43026060032042L689.04,236.50911687161997L690.84,225.8651354214339L691.92,219.33064107670353L693.36,244.16608789309248L694.0799999999999,240.8757554768035L695.52,222.57859128539658L696.96,205.07544383256413L698.4,220.03122542593763L704.16,195.65614431904848L707.4,203.5590170381126L707.76,204.50221375891581L711.72,206.93041740541136L714.6,204.05071368717148L714.96,210.00421648838844L716.0400000000001,225.359812678302L716.76,209.10188493904062L717.12,201.18087982723142L720,195.6542793799626L720.36,181.49575606932748L722.88,189.02745133517186L723.5999999999999,202.45955633952713L728.2800000000001,205.88484556026117L728.64,198.02407888133214L729.72,184.65660645332036L732.2399999999999,205.60445572732016L736.56,190.20740762828657L738.36,223.43973385426872L738.72,228.1925644841263L739.4399999999999,237.46601197703117L741.96,226.44229504538703L744.48,211.78342251133498L744.84,242.72648103694291L748.0799999999999,250.7903319228531L749.52,238.5175935358953L750.24,222.4417658911529L751.6800000000001,209.12979224765755L754.92,202.33660273037412L757.44,213.77557631624057L757.8,238.76780817682936L759.5999999999999,236.93463847595007L762.4799999999999,220.43517807458372L763.2,184.6949925658101L765.7199999999999,180.89329080527068L766.08,188.48669827795283L767.5200000000001,201.304177610054L769.32,219.04124104901766L770.4000000000001,184.1796318434844L771.12,201.70628318722981L772.2,203.8633407647643L773.2800000000001,194.47013341205866L774.72,176.12118001929986L777.6,153.0459120227634L780.48,155.3083654486152L781.1999999999999,171.62329805428774L781.9200000000001,173.70433959729627L782.9999999999999,169.141689481081L783.36,168.69237197557962L785.52,170.99287315999464L785.8799999999999,182.82884914248493L788.76,163.2581112116122L789.84,179.81992518573568L790.1999999999999,168.87314337203333L790.5600000000001,157.1438993629229L790.9200000000001,152.95033301304554L791.64,188.90124184813865L792.72,186.24249684721136L795.24,169.12285118966315L795.6,163.72864487799174L798.12,183.88108405673424L798.48,162.38643532150115L798.8399999999999,166.896240430149L802.08,165.13494515061123L803.5200000000001,165.93554540199352L804.24,164.6954029928676L804.5999999999999,148.36521983010672L805.32,154.0107313478086L807.12,175.1957353256905L807.4799999999999,196.83565933858395L808.2,176.65851790703974L808.56,164.76486603432863L808.92,173.3239453023129L810.7199999999999,199.13198884088666L815.76,215.71777576889684L819,172.4710980245331L821.1600000000001,167.91175694399226L823.68,185.98764741637657L824.0400000000001,180.64204497284092L827.28,189.14405595380666L829.8000000000001,176.20013144591306L833.04,180.6019960874434L834.1200000000001,179.68212241137724L836.64,188.92290667600864L837.36,175.7095873295328L838.8000000000001,168.54907657186712L842.4,189.13737376435304L842.7600000000001,187.0628379302521L843.8399999999999,183.71821317638287L845.6400000000001,167.23206923390774L847.08,175.18802151212756L851.76,160.94244852739374L852.4799999999999,154.87693210565652L852.84,157.31615821288497L855,161.70700232660045L855.36,171.05195405216332L855.7199999999999,180.05719840879948L856.44,180.13958444257162L857.16,186.3183532269067L861.4799999999999,194.0068260864407L867.96,191.79083596957582L870.1199999999999,190.1339734457122L872.64,195.34958211829306L874.8000000000001,215.04299594221231L876.24,222.8152185001513L876.96,208.73401702890507L877.6800000000001,213.4586971717826L879.84,186.89131028070247L880.9200000000001,167.80741501128875L881.64,187.39766710886164L882.72,196.0158700395338L883.8000000000001,190.89835564188436L884.8800000000001,200.90987795985637L888.12,194.20625806183062L888.8399999999999,217.7671986929709L893.16,167.7484978504261L893.5200000000001,178.08089251002272L893.88,158.0202941577471L898.92,133.16458967213848L900.36,139.54424753074701L901.8,149.17926872038072L903.24,161.3058564733642L903.5999999999999,190.91038015129612L904.68,170.72789497850113L905.4000000000001,146.30704270867702L906.12,128.84410448802734L909,127.43965284784576L909.72,150.77854898245482L910.8,137.7783847711304L911.88,148.4214525369665L912.96,151.61175328182352L913.68,151.74068181786774L914.76,153.16987228300025L915.84,152.2552231709664L921.6,157.27568204992812L924.1200000000001,171.48901275731933L925.9200000000001,190.14464156223795L926.28,165.39020522425494L926.64,162.84607613630897L927.36,151.24642985560413L927.72,171.74799260151974L928.44,186.0318687221104L929.16,166.66574725091013L930.6,160.2501197372648L932.04,163.63356462025672L933.8399999999999,177.24195242008443L934.5600000000001,180.86557377349936L937.08,174.61717320251054L937.8,175.8533060119604L938.16,185.20393183762624L939.96,168.31150925258135L941.4000000000001,167.8814426703139L943.2,167.0937613494464L943.92,151.89706696920427L944.2800000000001,185.34030997757128L947.88,191.62509821564055L948.24,198.77915940616276L949.68,193.91368085840057L950.76,183.5599203985853L951.84,171.6310035497638L952.2,191.72589266776586L953.2800000000001,199.48158360363615L953.64,198.41237566055722L954.3599999999999,192.89607053324082L956.1600000000001,180.23273764629477L956.52,182.92461602574636L959.0400000000001,168.76347358085496L959.4,148.72956297753004L960.84,145.092441249559L961.56,150.67615267463395L962.28,158.7473975139225L963.72,146.23992498437147L967.3199999999999,163.00452419627382L968.04,157.50752253285404L968.76,162.1296229721801L969.1200000000001,152.70743311323594L970.5600000000001,153.83904700619084L971.64,176.10445065995694L974.52,174.62214334566235L975.9599999999999,176.394359363439L977.04,173.42412330614562L981,159.94819343676554L982.44,160.9177837131917L983.16,178.55557064671012L984.96,180.29489569754006L985.32,156.87075088921773L986.04,194.6049023392323L986.76,185.1445506599903L987.12,164.5692228428936L987.84,170.25681743704996L988.56,172.83939011550336L988.92,169.22537402901884L990.36,173.1293997561565L991.44,175.29617391248485L992.5200000000001,142.95594191040414L994.32,161.53205270093937L998.64,178.84238425070933L1000.08,189.26868063728338L1001.1600000000001,200.17041157427397L1004.76,181.574060586626L1006.9200000000001,197.49603688157296L1007.28,171.50196765600586L1007.9999999999999,208.19022490043187L1009.0799999999999,184.97649247598815L1010.16,172.63637296831521L1010.52,158.86074329439813L1010.8799999999999,167.69998106833245L1014.48,163.9092208950278L1014.84,171.6456522304793L1015.1999999999999,188.88157867865712L1015.9200000000001,181.26410483635408L1020.24,162.83168572238785L1020.6,175.17522855661105L1020.9599999999999,177.81621797855234L1021.32,172.34047031021208L1024.2,168.6617837883001L1027.44,156.16663485756533L1033.56,161.7375728487432L1038.6,173.21043572514318L1039.68,151.01994790570447L1040.04,165.69054651864425L1040.4,190.22328215007818L1041.12,193.60660162482944L1044,180.1308291553927L1044.72,190.80310011915583L1046.16,189.43249202011128L1049.76,199.2710592614207L1052.6399999999999,212.3209473420368L1053,188.92272578789365L1056.96,172.63805798038902L1059.84,172.43887515594673L1062,187.5351024373181L1062.3600000000001,146.88777080476058L1063.08,181.2779729581324L1063.8,236.28045352245212L1065.6,192.8524319645455L1072.44,180.47245665750583L1073.1599999999999,186.4695769349895L1074.6,189.91855124052722L1074.96,200.9574817751062L1078.56,197.384883205454L1079.28,187.11232728796213L1080.36,186.0022102096819L1080.72,190.0684440222559L1081.08,192.06741731503064L1084.68,182.9499697019503L1085.04,178.58060058854178L1086.12,202.87185965122075L1086.8400000000001,204.20890839092405L1088.28,203.16543450974598L1089,211.71088083125133L1090.08,180.00228448371737L1090.8,172.27263014481085L1091.52,163.70087772724867L1092.24,168.3492314409898L1095.48,188.43627540282068L1096.92,189.0184384970259L1098.3600000000001,167.91848092376773L1099.08,190.09856536677L1100.16,193.7658952249824L1101.24,202.1284902529469L1103.4,198.1528477011972L1103.76,182.88575211765715L1105.2,184.63790946503346L1106.28,196.3005271567282L1107.3600000000001,204.75938108872404L1108.08,212.3573392515198L1111.3200000000002,248.2287754668758L1112.3999999999999,235.7404669555405L1112.76,200.24847601753447L1113.1200000000001,180.9529965261888L1113.48,195.2315804721005L1114.56,226.23145542554727L1116,192.31605191696823L1118.1599999999999,198.07665974163044L1118.52,185.07493182027324L1119.6,208.89772762337634L1122.48,173.44671105569645L1124.28,198.45849347020052L1125.36,210.7931201158868L1126.44,222.69313022946292L1126.8,229.63356410123504L1128.96,226.7445265011369L1129.68,223.76492157272617L1131.8400000000001,216.3821491787056L1132.9199999999998,228.4293792406406L1134,224.87793476249584L1134.36,225.06711912212725L1135.8,210.60681255815274L1142.6399999999999,212.6836240374364L1144.08,219.48409603688873L1144.8,254.61558905312592L1146.6,234.3404193345855L1148.4,223.6165520920844L1153.08,184.7243942749885L1154.52,182.54341964135267L1155.6,182.83085783386514L1161,207.58974462327404L1164.96,216.20043854736437L1165.32,218.6695938251115L1166.4,187.87047140525877L1168.56,190.9586046592328L1171.08,202.07183417873728L1171.44,192.20095749248125L1171.8,199.2064504908313L1172.1599999999999,198.97975376077923L1172.52,179.62837449439206L1172.88,177.51493181286497L1175.76,205.18350364220925L1184.04,204.96215531408154L1184.4,173.20629019890012L1184.76,202.30069349894129L1187.28,194.40759024205553L1191.24,174.6649362194427L1191.96,187.62480627629637L1196.28,198.01111156423977L1196.6399999999999,197.0134286655101L1197.72,194.79808170726875L1198.44,187.7551523303539L1198.8,210.7837136751053L1199.52,203.56044491508044L1206.36,258.3339893106862L1208.1599999999999,280.7597025481333L1209.24,269.9121479402006L1210.32,275.44020061644335L1213.56,299.88301230594817L1213.92,297.7564196360244L1216.08,270.42201150122855L1216.8,277.25451519518015L1217.1599999999999,273.8015810230951L1219.32,259.4725881472667L1220.4,272.35221936116176L1220.76,258.9941847872387L1222.56,261.28429949820713L1223.28,252.002621718108L1224,283.7919246491181L1225.08,269.85463738154004L1225.44,260.86529164875384L1228.32,269.44792172621896L1230.12,285.6192812539273L1230.84,251.73624471436426L1231.2,268.2336213327079L1231.56,272.4059169648986L1235.52,265.62251816834726L1239.1200000000001,239.45159819419302L1242,259.55349617143617L1248.1200000000001,308.9855478031002L1249.92,297.60400583053234L1250.64,294.3816333578916L1251,315.50976573673387L1252.0800000000002,313.1219391686262L1255.68,359.7292546337066L1257.8400000000001,382.90579683399125L1259.28,365.572933329347L1261.08,386.03369868955434L1261.8,376.08869367521476L1262.52,345.08814964746466L1263.24,321.0475467180818L1263.96,391.00781120228277L1265.4,375.57848481296463L1265.76,384.738807184635L1266.8400000000001,371.51625442233455L1269,364.9670832984484L1269.72,357.10000205602495L1270.8,323.12706416907736L1273.6799999999998,355.5506675146253L1274.4,373.9098445137144L1274.76,339.48273109599904L1275.12,315.05910455890086L1278,299.1706701316277L1283.4,333.17436591740716L1284.1200000000001,340.0889053745598L1284.84,359.48163667296393L1285.5600000000002,341.2987574002721L1286.28,315.051447615259L1289.52,286.95620628723873L1290.96,290.21360679905314L1291.68,342.97826312951355L1295.64,364.54242514584496L1297.0800000000002,375.4554600583509L1300.68,374.02563410479723L1303.92,380.15115707068514L1305.72,350.68712912905005L1308.24,364.07430014142676L1309.32,328.2421480392863L1309.68,340.0386645430823L1311.8400000000001,342.5354954758447L1312.2,347.3550693579321L1312.9199999999998,320.1984839670542L1314,332.6890577234895L1315.8,310.1332282178903L1316.8799999999999,311.8676690550628L1317.24,321.5684552550122L1317.96,346.219909990189L1323.72,319.8142370836848L1326.24,324.3616795188642L1327.68,329.59437812018365L1330.2,355.36690412137307L1330.5600000000002,370.11752520902985L1333.08,348.6536105292359L1334.16,389.174744668489L1342.8,378.0992566703607L1343.88,338.2874745637868L1344.6,376.114675451421L1346.4,326.5537845188994L1347.48,289.39176112060386L1347.8400000000001,278.6899218492234L1348.56,311.1137702094721L1348.92,375.3991017082732L1351.44,379.2127242519865L1352.88,384.6616437788578L1356.12,372.4716718188847L1357.9199999999998,373.76038168712313L1361.16,345.03172358777437L1361.8799999999999,345.8836256044562L1362.6000000000001,345.8281198717398L1364.04,304.49264743926045L1365.12,325.5950211593852L1369.8,318.2702341282436L1370.16,351.70517711388555L1370.52,352.5105733005438L1372.68,346.1781307287722L1375.5600000000002,370.6767381473698L1377.72,374.2228754308413L1378.08,352.53330630204164L1378.44,348.25924364779274L1379.88,320.19296223599196L1381.68,375.9327512478921L1384.2,348.34384488806916L1387.0800000000002,361.79944044841955L1388.52,395.1833190571424L1389.96,340.52748833557746L1390.68,300.17805954492553L1392.8400000000001,333.80174606983206L1393.92,361.583590768519L1394.64,387.2548955135923L1395.36,355.50220963998004L1396.08,385.0879812100134L1397.1599999999999,360.075659083228L1398.96,342.86199060081094L1403.28,343.9773291308066L1405.08,317.8582144950855L1406.8799999999999,348.74105761269135L1413.3600000000001,350.5863670329187L1414.8,355.07748964043367L1415.8799999999999,342.3550654530318L1417.68,328.1720823784851L1419.84,362.489024509019L1420.2,332.7548850599318L1421.6399999999999,305.98120935744527L1422.3600000000001,304.7078215634934L1424.52,361.03592593041503L1424.88,370.95285357941884L1427.04,360.6621398397712L1429.56,364.4741135207028L1431.72,349.87010543976265L1432.8,340.5471403647581L1434.96,372.84917372116007L1438.92,400.43919720531943" style="fill: none;" fill="none"></path></g></g></g></g><g opacity="0.2"><g><g><g><path stroke="rgb(255, 112, 67)" stroke-width="2px" d="M181.8,68.72498879065881L186.48000000000002,90.77040965740497L188.64000000000001,85.71108671335071L194.4,104.95523159320538L195.12,118.40250712174634L195.84,99.34748026040882L196.20000000000002,91.69000295492322L196.92000000000002,93.01847384526178L199.08,100.02020799196686L200.16000000000003,99.70367101522595L203.39999999999998,85.46047760890082L205.55999999999997,93.6776832433847L206.27999999999997,130.52997735830456L206.64,74.0813684463501L208.44,84.62955071375922L211.32,88.03540816673865L213.84,118.26871028313269L216.72,92.61056679945722L217.79999999999998,68.57718834510217L218.16,98.35086712470422L220.68,87.15144780965954L222.48,130.86821299332837L225.36,117.83598496363715L226.8,72.54381399888257L230.04,85.74554113241345L234,94.13127532372107L235.8,77.65693297752966L236.88000000000002,117.07029269291803L240.12,104.12957338186413L240.48000000000002,136.0180741090041L244.08,106.09874395223767L245.88000000000002,114.05612028562103L246.60000000000002,58.766136536231386L246.96,74.68206772437463L248.39999999999998,105.79510138585016L251.27999999999997,90.11390392596905L254.16,85.47399594233588L254.51999999999998,107.77730501615082L256.32,111.65165937863861L260.28,117.05531853895917L262.44,79.39067657177264L264.24,137.36124185415417L265.32,134.77854692018948L269.64,104.84542113084058L271.8,115.96996967609113L273.6,94.12066863133356L274.68,114.7158149572519L276.12,84.11030806027924L277.56,85.21881140195404L278.28000000000003,148.88877538534314L285.12,75.3426636182345L286.92,102.2283411026001L287.28000000000003,99.82706913581262L289.08000000000004,132.36597501314603L290.88,93.16398657285248L291.6,120.62720885643591L294.47999999999996,180.79266621516302L294.84,117.35050348135144L297.35999999999996,132.07266183999866L297.71999999999997,139.6045919565054L298.8,110.1864800086388L302.03999999999996,137.2689705628615L304.92,138.0040906025813L310.68,95.98585202143744L312.12,139.39058633951038L314.28,188.6803018129789L315.72,242.35155178950382L316.44,193.75681730417102L321.12,206.74433084634632L326.88,204.2007350921631L331.56,209.07385165874774L331.92,224.9094354189359L332.64000000000004,274.76213748638446L334.8,214.77137859051044L338.03999999999996,234.64845877427322L338.76,337.44959592819214L339.12,230.28994010044977L340.2,227.62759098639853L342.35999999999996,298.423727108882L345.59999999999997,228.81893744835486L346.68,194.04569369096023L347.03999999999996,344.9824965917147L350.64,240.6246020243718L356.04,260.95222399784967L356.76,355.20613486950214L357.48,227.45289252354547L362.52,207.8720371539776L364.32,226.3360702074491L365.04,234.91556717799259L366.11999999999995,227.58315379802997L368.99999999999994,239.98937900249774L371.15999999999997,221.15327981802133L371.88,267.22008595099817L372.96000000000004,250.4922921840961L375.12,267.4294468072744L376.91999999999996,248.42613623692438L380.52,236.26088399153488L381.23999999999995,169.4820499420166L382.68,210.50748825073242L384.84,182.06775701962985L386.28,268.20456724900464L388.44,119.7464374395517L389.15999999999997,202.92890255267804L389.52000000000004,222.97146100264328L390.24,210.1151099571815L390.96000000000004,248.9050318644597L391.32,209.8807228528536L393.12,206.07479205498328L393.48,192.75583670689508L396.72,254.6692492411687L398.88000000000005,271.8238757206843L399.6,232.23651079031137L401.4,196.93043672121487L403.20000000000005,255.84603749788724L403.92,234.55993102147028L408.23999999999995,295.00559916863074L410.76,161.6846752166748L411.11999999999995,251.045434658344L411.84,217.5100542948796L412.55999999999995,308.44736337661743L412.92,202.6099392083975L413.64,67.22278998448297L417.96000000000004,197.83976995027982L419.03999999999996,222.87066276256854L420.47999999999996,230.20383871518646L421.56,222.04500455122727L422.64,202.83309569725623L424.08,229.70033278832068L424.44,228.8489550810594L425.88,219.8797141588651L427.68,251.04141382070688L428.04,193.18849270160382L431.64000000000004,221.29809929774356L433.08000000000004,228.59411716461182L434.15999999999997,225.48496979933518L437.03999999999996,154.97861128586987L438.48,244.77646350860596L439.56000000000006,155.47892827254074L439.92,228.21678234980655L440.28000000000003,215.45076150160568L442.8,233.5021734237671L444.96,257.0807812764094L445.68,143.474509532635L446.04,165.2849193719717L447.48,115.27686045720026L448.92,230.9969142767099L450,208.79031328054575L450.35999999999996,225.78278908362753L450.72,167.9813762811514L452.16,194.43453642038196L455.4,145.21678007566013L456.84,205.29724524571344L457.2,196.6394805908203L457.55999999999995,205.37793929760272L458.28,175.53604492774375L458.64,218.15616130828857L460.8,239.143616602971L462.24,163.93225413102368L462.59999999999997,212.3726023160494L463.32,206.7647123336792L464.03999999999996,207.90968051323523L465.12,151.33531643794134L465.47999999999996,220.70398587446945L465.84000000000003,173.11432214883655L466.2,151.08013189755954L467.28000000000003,145.80472359290488L468.72,185.5883469948402L470.52,178.00518586085394L470.88,172.14710272275485L471.23999999999995,183.38215497823865L473.4,186.67799399449274L477,204.00003983424259L478.08000000000004,247.94294247260459L479.52000000000004,182.95615416306714L480.96000000000004,167.14504205263577L481.68,177.3037576675415L483.48,176.08357209425705L492.12,201.46199006300705L492.84,242.31252193450928L493.20000000000005,255.02973813277026L494.64000000000004,158.45719044025125L495.35999999999996,249.0775812589205L496.79999999999995,210.52890960986798L497.52,183.9593531535222L500.4,211.63588780623215L502.55999999999995,198.114642730126L503.99999999999994,191.11408710479736L506.52,250.73208662179798L506.88,186.35681225703314L507.24,224.7115131524893L507.59999999999997,232.1740491573627L509.40000000000003,210.30880341163046L510.12,192.98918393942026L511.2,255.33372732309192L511.56,214.30579332204965L512.28,195.7189860710731L515.16,191.59617167252762L515.52,215.71246257195105L516.6,220.09392775022064L519.12,105.204176902771L520.2,229.39883929032547L523.4399999999999,195.0762759722196L524.16,185.3561782836914L524.88,176.3077684549185L525.96,208.95225598261905L526.3199999999999,143.0800514954787L529.5600000000001,206.07493070455698L529.92,199.57448409153864L531.36,161.59781125875622L531.72,240.86938784672662L532.08,173.5425413571871L532.44,236.75295132857102L533.88,157.74799787081204L534.24,172.53448963165283L535.32,219.3627592233511L535.68,177.7377308332003L538.56,170.0949503825261L540,202.67073704646182L540.72,202.10012472592868L541.44,154.9004129263071L541.8,230.984227840717L545.04,153.95572405595044L546.12,172.8036084541908L549,155.72503126584567L549.7199999999999,195.09034890394943L551.16,119.6852236527663L551.52,224.59560210888202L553.3199999999999,109.51527742239148L555.84,96.94191015683685L559.8,163.03227974818304L560.52,184.79901497180643L562.68,92.63670224409833L563.76,117.01822977799634L564.48,208.15786325014554L565.9200000000001,193.89005954448993L567.36,180.93838691711426L568.08,152.6180329689613L569.88,101.97378048529993L570.24,107.51054323636566L570.6,107.18034927661603L573.48,167.25603103637695L575.64,114.32953724494348L577.08,169.94853643270642L577.44,133.7679995023287L577.8,144.30404993203967L581.0400000000001,120.12543604924127L582.84,154.40071986271784L587.88,168.20044260758618L588.6,119.02850994696985L595.8,115.5868809039776L596.16,138.80721825819748L597.6,177.81891015859753L597.96,104.74732655745282L598.3199999999999,161.97181848379284L604.8,88.75978286449725L606.6,152.99488251025858L609.12,174.30428211505594L609.48,134.45209649892956L611.64,153.2997729228093L612.36,114.70624813666711L614.16,129.48067738459662L614.88,152.81976809868448L615.6,147.27385447575494L617.04,174.8789845980131L623.52,130.6748661628136L624.24,146.52348298292893L624.96,155.0619396796593L627.84,149.82736367445725L628.9200000000001,106.17805150839001L631.0799999999999,137.410531777602L631.8,136.95610779982346L632.52,132.5914192199707L632.88,116.09101075392499L633.9599999999999,144.80603071359485L635.76,146.16451923663797L638.64,170.7280243360079L641.16,142.88982428037204L643.3199999999999,187.3561983842116L644.76,158.68651683513934L645.12,192.40685572991003L645.48,181.75926171816312L645.84,193.10800662407507L648,122.90334958296555L651.6,237.47836589813232L652.32,151.82738377497748L653.4,181.55967565683216L653.76,142.82133139096774L654.84,267.1776591814481L657,191.6592572285579L657.72,221.70933393331674L658.8000000000001,182.46353222773627L659.88,170.50285742833063L660.96,231.1871414918166L661.3199999999999,177.39096824939432L667.8,151.12886722271259L671.76,201.24105196732742L673.2,221.37179154616135L678.6,216.4081368079552L679.68,217.50700400425836L680.04,171.17579313424915L680.76,269.3164675052349L681.12,216.2620001572829L688.3199999999999,212.63305554023154L688.6800000000001,184.245248574477L689.04,284.62740127856915L690.84,209.89916324615479L691.92,209.52889955960788L693.36,281.4192581176758L694.0799999999999,235.94025685237003L695.52,195.13284499828632L696.96,178.8207226533156L698.4,242.46489781599777L704.16,159.09352265871487L707.4,215.4133261167086L707.76,205.91700884012073L711.72,210.5727228751549L714.6,199.73115810981162L714.96,218.93447069021371L716.0400000000001,248.3932069631723L716.76,184.71499333014853L717.12,189.2993721595177L720,187.3643787090595L720.36,160.25797110337476L722.88,200.32499423393836L723.5999999999999,222.60771384605994L728.2800000000001,211.02277939136212L728.64,186.2329288629385L729.72,164.60539781130277L732.2399999999999,237.02622963831973L736.56,167.11183547973633L738.36,273.288223193242L738.72,235.3218104289128L739.4399999999999,251.37618321638843L741.96,209.90671964792102L744.48,189.79511371025671L744.84,289.1410688253549L748.0799999999999,262.8861082517184L749.52,220.1084859554584L750.24,198.3280244240394L751.6800000000001,189.16183178241437L754.92,192.146818454449L757.44,230.93403669504016L757.8,276.2561559677124L759.5999999999999,234.18488392463095L762.4799999999999,195.68598747253418L763.2,131.08471430264987L765.7199999999999,175.19073816446155L766.08,199.87680948697604L767.5200000000001,220.53039660820593L769.32,245.6468362074632L770.4000000000001,131.88721803518445L771.12,227.996260202848L772.2,207.09892713106595L773.2800000000001,180.38032238300028L774.72,148.59774993016168L777.6,118.4330100279588L780.48,158.70204558739297L781.1999999999999,196.09569696279672L781.9200000000001,176.82590191180887L782.9999999999999,162.297714306758L783.36,168.0183957173274L785.52,174.4436249366173L785.8799999999999,200.5828131162203L788.76,133.90200431530292L789.84,204.662646146921L790.1999999999999,152.4529706514799L790.5600000000001,139.55003334925726L790.9200000000001,146.65998348822959L791.64,242.8276051007784L792.72,182.2543793458205L795.24,143.44338270334094L795.6,155.6373354104849L798.12,214.10974282484787L798.48,130.1444622186514L798.8399999999999,173.66094809312085L802.08,162.49300223130444L803.5200000000001,167.13644577906683L804.24,162.8351893791786L804.5999999999999,123.8699450859657L805.32,162.47899862436145L807.12,206.9732412925133L807.4799999999999,229.29554535792423L808.2,146.39280575972336L808.56,146.92438822526196L808.92,186.16256420428934L810.7199999999999,237.84405414874738L815.76,240.59645616091214L819,107.60108140798718L821.1600000000001,161.07274532318115L823.68,213.10148312495303L824.0400000000001,172.62364130753735L827.28,201.8970724252554L829.8000000000001,156.78424468407266L833.04,187.20479304973895L834.1200000000001,178.30231189727783L836.64,202.78408307295578L837.36,155.88960830981912L838.8000000000001,157.80831043536844L842.4,220.01981955308182L842.7600000000001,183.95103417910062L843.8399999999999,178.70127604557916L845.6400000000001,142.5028533201951L847.08,187.12194992945746L851.76,139.57408905029297L852.4799999999999,145.77865747305066L852.84,160.97499737372763L855,168.29326849717359L855.36,185.0693816405076L855.7199999999999,193.56506494375375L856.44,180.26316349322977L857.16,195.58650640340952L861.4799999999999,205.5395353757418L867.96,188.46685079427868L870.1199999999999,187.64867965991678L872.64,203.1729951271644L874.8000000000001,244.5831166780912L876.24,234.4735523370596L876.96,187.61221482203558L877.6800000000001,220.545717386099L879.84,147.04022994408243L880.9200000000001,139.18157210716836L881.64,216.78304525522083L882.72,208.94317443554218L883.8000000000001,183.22208404541016L884.8800000000001,215.92716143681452L888.12,184.15082821479209L888.8399999999999,253.10860963968128L893.16,92.72044658660889L893.5200000000001,193.57948449941782L893.88,127.9293966293335L898.92,95.88103294372559L900.36,149.11373431865985L901.8,163.63180050483115L903.24,179.49573810283954L903.5999999999999,235.31716566819412L904.68,140.4541672193087L905.4000000000001,109.67576430394098L906.12,102.64969715705286L909,125.33297538757324L909.72,185.7868931843684L910.8,118.2781384541438L911.88,164.3860541857206L912.96,156.3972043991089L913.68,151.93407462193414L914.76,155.3136579806988L915.84,150.8832495029156L921.6,164.80637036837064L924.1200000000001,192.8090088184063L925.9200000000001,218.12808476961575L926.28,128.25855071728046L926.64,159.02988250438983L927.36,133.84696043454684L927.72,202.50033672039325L928.44,207.45768290299637L929.16,137.61656504410962L930.6,150.62667846679688L932.04,168.7087319447444L933.8399999999999,197.65453411982608L934.5600000000001,186.3010058036217L937.08,165.24457234602707L937.8,177.70750522613525L938.16,199.2298705761249L939.96,142.9728753750141L941.4000000000001,167.23634279691257L943.2,165.91223936814526L943.92,129.10202539884128L944.2800000000001,235.50517449012168L947.88,201.0522805727445L948.24,209.51025119194617L949.68,186.61546303675726L950.76,168.0292797088623L951.84,153.7376282765315L952.2,221.86822634476883L953.2800000000001,211.1151200074416L953.64,196.8085637459388L954.3599999999999,184.62161284226636L956.1600000000001,161.2377383158757L956.52,186.96243359492377L959.0400000000001,147.52175991351785L959.4,118.6786970725426L960.84,139.63675865760214L961.56,159.0517198122465L962.28,170.85426477285534L963.72,127.47871619004468L967.3199999999999,188.15142301412732L968.04,149.2620200377244L968.76,169.06277363116922L969.1200000000001,138.57414832481973L970.5600000000001,155.5364678456233L971.64,209.50255614060623L974.52,172.39868237422064L975.9599999999999,179.05268339010388L977.04,168.96876922020547L981,139.73429863269513L982.44,162.37216912783109L983.16,205.01225104698767L984.96,182.9038832737849L985.32,121.73453367673432L986.04,251.20612951425403L986.76,170.95402314112738L987.12,133.70623111724854L987.84,178.78820932828464L988.56,176.71324913318338L988.92,163.804349899292L990.36,178.9854383468628L991.44,178.54633514697733L992.5200000000001,94.4455939072829L994.32,189.39621888674222L998.64,204.80788157536432L1000.08,204.90812521714432L1001.1600000000001,216.5230079797598L1004.76,153.6795341051542L1006.9200000000001,221.37900132399338L1007.28,132.51086381765515L1007.9999999999999,263.22261076707105L1009.0799999999999,150.15589383932263L1010.16,154.12619370680588L1010.52,138.1972987835224L1010.8799999999999,180.95883772923395L1014.48,158.2230806350708L1014.84,183.25029923365668L1015.1999999999999,214.73546835092395L1015.9200000000001,169.83789407289945L1020.24,135.18305705143854L1020.6,193.69054280794583L1020.9599999999999,181.7777021114643L1021.32,164.1268488077017L1024.2,163.14375400543213L1027.44,137.42391146146335L1033.56,170.09397983551025L1038.6,190.41973003974326L1039.68,117.73421617654651L1040.04,187.696444438054L1040.4,227.022385597229L1041.12,198.68158083695633L1044,159.91717045123758L1044.72,206.81150656480057L1046.16,187.37657987154446L1049.76,214.0289101233849L1052.6399999999999,231.89577946296103L1053,153.82539345667914L1056.96,148.2110562691322L1059.84,172.14010091928333L1062,210.179443359375L1062.3600000000001,85.91677335592419L1063.08,232.86327618819016L1063.8,318.7841743689317L1065.6,127.71039962768555L1072.44,161.90249369694635L1073.1599999999999,195.46525735121506L1074.6,195.09201269883377L1074.96,217.5158775769747L1078.56,192.02598535097562L1079.28,171.70349341172437L1080.36,184.3370345922617L1080.72,196.16779474111704L1081.08,195.06587725419266L1084.68,169.27379828232984L1085.04,172.02654691842883L1086.12,239.30874824523926L1086.8400000000001,206.21448150047888L1088.28,201.60022368797888L1089,224.5290503135094L1090.08,132.43938996241644L1090.8,160.67814863645114L1091.52,150.8432491009052L1092.24,175.32176201160135L1095.48,218.56684134556696L1096.92,189.89168313833383L1098.3600000000001,136.26854456388034L1099.08,223.36869203127347L1100.16,199.2668900123009L1101.24,214.67238279489368L1103.4,192.18938387357272L1103.76,159.98510874234714L1105.2,187.26614548609808L1106.28,213.7944536942702L1107.3600000000001,217.4476619867178L1108.08,223.75427649571344L1111.3200000000002,302.0359297899099L1112.3999999999999,217.0080041885376L1112.76,147.0104896105253L1113.1200000000001,152.00977728917047L1113.48,216.6494563909677L1114.56,272.7312678557176L1116,141.44294665409967L1118.1599999999999,206.7175714786236L1118.52,165.5723399382371L1119.6,244.6319213280311L1122.48,120.2701862041767L1124.28,235.97616709195648L1125.36,229.29506008441632L1126.44,240.5431453998272L1126.8,240.04421490889328L1128.96,222.4109701009897L1129.68,219.29551418011005L1131.8400000000001,205.30799058767465L1132.9199999999998,246.50022433354303L1134,219.5507680452787L1134.36,225.35089566157413L1135.8,188.91635271219104L1142.6399999999999,215.79884125636173L1144.08,229.68480403606708L1144.8,307.3128285774818L1146.6,203.9276647567749L1148.4,207.53075122833252L1153.08,126.3861575493446L1154.52,179.27195769089917L1155.6,183.26201512263373L1161,244.72807480738712L1164.96,229.11647943349985L1165.32,222.37332674173206L1166.4,141.67178777547986L1168.56,195.59080454019397L1171.08,218.74167845799371L1171.44,177.3946424630972L1171.8,209.71468998835635L1172.1599999999999,198.63970866570105L1172.52,150.60130559481107L1172.88,174.34476779057428L1175.76,246.68636138622577L1184.04,204.63013282189002L1184.4,125.57249252612775L1184.76,245.94229844900278L1187.28,182.56793535672702L1191.24,145.0509551855234L1191.96,207.06461136157697L1196.28,213.59056949615479L1196.6399999999999,195.51690431741565L1197.72,191.47506126990683L1198.44,177.1907582649818L1198.8,245.32655569223255L1199.52,192.72554177504318L1206.36,340.494305904095L1208.1599999999999,314.3982724043039L1209.24,253.64081602830151L1210.32,283.73227963080774L1213.56,336.54722984020526L1213.92,294.56653063113873L1216.08,229.4203992990347L1216.8,287.5032707361074L1217.1599999999999,268.62217976496765L1219.32,237.97909883352426L1220.4,291.6716661820045L1220.76,238.95713292635403L1222.56,264.71947156465967L1223.28,238.08010504795953L1224,331.4758790456332L1225.08,248.94870648017294L1225.44,247.38127304957462L1228.32,282.3218668424166L1230.12,309.87632054549L1230.84,200.9116899050199L1231.2,292.9796862602234L1231.56,278.6643604131845L1235.52,255.44741997352014L1239.1200000000001,200.1952182329618L1242,289.7063431373009L1248.1200000000001,383.13362525059625L1249.92,280.5316928716806L1250.64,289.5480746489305L1251,347.2019643049974L1252.0800000000002,309.54019931646496L1255.68,429.64022783132697L1257.8400000000001,417.6706101344182L1259.28,339.5736380723806L1261.08,416.7248467298654L1261.8,361.1711861537053L1262.52,298.58733360583966L1263.24,284.98664232400745L1263.96,495.94820792858417L1265.4,352.43449522898743L1265.76,398.4792907421405L1266.8400000000001,351.68242527888367L1269,355.14332661261926L1269.72,345.29938019238983L1270.8,272.1676573386559L1273.6799999999998,404.1860725329472L1274.4,401.44861001234784L1274.76,287.8420609694261L1275.12,278.4236647532536L1278,275.33801849071796L1283.4,384.17990959607636L1284.1200000000001,350.46071456028864L1284.84,388.57073362057025L1285.5600000000002,314.0244384912344L1286.28,275.68048293773944L1289.52,244.81334429520828L1290.96,295.0997075667748L1291.68,422.1252476252042L1297.0800000000002,391.8250124271099L1300.68,371.8808951744666L1303.92,389.33944151951715L1305.72,306.4910872165973L1308.24,384.1550566599919L1309.32,274.49391988607556L1309.68,357.7334392987765L1311.8400000000001,346.2807418749882L1312.2,354.5844301810631L1312.9199999999998,279.4636058807373L1314,351.4249183581425L1315.8,276.2994839594914L1316.8799999999999,314.46933031082153L1317.24,336.11963455493634L1317.96,383.19709209295416L1323.72,280.2057277239286L1326.24,331.1828431716332L1327.68,337.4434260221628L1330.2,394.02569312315717L1330.5600000000002,392.24345684051514L1333.08,316.4577385095449L1334.16,449.9564458773686L1342.8,361.48602467316846L1343.88,278.56980140392596L1344.6,432.85547678287213L1346.4,252.2124481201172L1347.48,233.6487260231605L1347.8400000000001,262.6371629421527L1348.56,359.74954274984503L1348.92,471.82709895647486L1352.1599999999999,434.4743145429171L1352.88,359.6780688946064L1356.12,354.186713878925L1357.9199999999998,375.69344648948083L1361.16,301.9387364387512L1361.8799999999999,347.161478629479L1362.6000000000001,345.74486127266516L1364.04,242.4894387905414L1365.12,357.2485817395724L1369.8,307.28305358153125L1370.16,401.8575915923485L1370.52,353.7186675805312L1372.68,336.67946687111487L1375.5600000000002,407.4246492752662L1377.72,379.5420813560486L1378.08,319.9989526088421L1378.44,341.8481496664194L1379.88,278.09354011829083L1381.68,459.54243476574237L1384.2,306.96048534833466L1387.0800000000002,381.98283378894513L1388.52,445.25913697022656L1389.96,258.54374225323016L1390.68,239.65391635894775L1392.8400000000001,384.23727585719183L1394.64,425.7618526312021L1395.36,307.87318082956165L1396.08,429.4666385650635L1397.1599999999999,322.55717589304993L1398.96,317.04148787718555L1403.28,345.65033692580005L1405.08,278.6795425415039L1406.8799999999999,395.06532228910004L1413.3600000000001,353.35433116325964L1414.8,361.8141735517062L1415.8799999999999,323.27142917192896L1417.68,306.8976077666649L1419.84,413.9644377048199L1420.2,288.1536758863009L1421.6399999999999,265.82069580371564L1422.3600000000001,302.7977398725656L1424.52,445.52808248079737L1424.88,385.8282450529245L1427.04,345.22606923029974L1429.56,370.19207404210016L1431.72,327.9640933183523L1432.8,326.5626927522512L1434.96,421.3022237557631" style="fill: none;" fill="none"></path></g></g></g></g></g></g><g transform="translate(58, 378)" clip-path="url(#clip_1)"><clipPath id="clip_1"><rect width="1440" height="22"></rect></clipPath><g><g><line x1="0" y1="0" x2="0" y2="5" style="visibility: inherit;" fill="rgb(0, 0, 0)" stroke="rgb(204, 204, 204)" stroke-width="1px"></line><line x1="180" y1="0" x2="180" y2="5" style="visibility: inherit;" fill="rgb(0, 0, 0)" stroke="rgb(204, 204, 204)" stroke-width="1px"></line><line x1="360" y1="0" x2="360" y2="5" style="visibility: inherit;" fill="rgb(0, 0, 0)" stroke="rgb(204, 204, 204)" stroke-width="1px"></line><line x1="540" y1="0" x2="540" y2="5" style="visibility: inherit;" fill="rgb(0, 0, 0)" stroke="rgb(204, 204, 204)" stroke-width="1px"></line><line x1="720" y1="0" x2="720" y2="5" style="visibility: inherit;" fill="rgb(0, 0, 0)" stroke="rgb(204, 204, 204)" stroke-width="1px"></line><line x1="900" y1="0" x2="900" y2="5" style="visibility: inherit;" fill="rgb(0, 0, 0)" stroke="rgb(204, 204, 204)" stroke-width="1px"></line><line x1="1080" y1="0" x2="1080" y2="5" style="visibility: inherit;" fill="rgb(0, 0, 0)" stroke="rgb(204, 204, 204)" stroke-width="1px"></line><line x1="1260" y1="0" x2="1260" y2="5" style="visibility: inherit;" fill="rgb(0, 0, 0)" stroke="rgb(204, 204, 204)" stroke-width="1px"></line><line x1="1440" y1="0" x2="1440" y2="5" style="visibility: inherit;" fill="rgb(0, 0, 0)" stroke="rgb(204, 204, 204)" stroke-width="1px"></line></g><g transform="translate(0, 8)"><text x="0" y="0" dx="0em" dy="0.95em" style="text-anchor: middle; visibility: hidden; font-family: &quot;Helvetica Neue&quot;, sans-serif; font-size: 12px; font-weight: 200;" fill="rgb(50, 49, 63)" stroke="none" stroke-width="1px">-500</text><text x="180" y="0" dx="0em" dy="0.95em" style="text-anchor: middle; visibility: inherit; font-family: &quot;Helvetica Neue&quot;, sans-serif; font-size: 12px; font-weight: 200;" fill="rgb(50, 49, 63)" stroke="none" stroke-width="1px">0</text><text x="360" y="0" dx="0em" dy="0.95em" style="text-anchor: middle; visibility: inherit; font-family: &quot;Helvetica Neue&quot;, sans-serif; font-size: 12px; font-weight: 200;" fill="rgb(50, 49, 63)" stroke="none" stroke-width="1px">500</text><text x="540" y="0" dx="0em" dy="0.95em" style="text-anchor: middle; visibility: inherit; font-family: &quot;Helvetica Neue&quot;, sans-serif; font-size: 12px; font-weight: 200;" fill="rgb(50, 49, 63)" stroke="none" stroke-width="1px">1k</text><text x="720" y="0" dx="0em" dy="0.95em" style="text-anchor: middle; visibility: inherit; font-family: &quot;Helvetica Neue&quot;, sans-serif; font-size: 12px; font-weight: 200;" fill="rgb(50, 49, 63)" stroke="none" stroke-width="1px">1.5k</text><text x="900" y="0" dx="0em" dy="0.95em" style="text-anchor: middle; visibility: inherit; font-family: &quot;Helvetica Neue&quot;, sans-serif; font-size: 12px; font-weight: 200;" fill="rgb(50, 49, 63)" stroke="none" stroke-width="1px">2k</text><text x="1080" y="0" dx="0em" dy="0.95em" style="text-anchor: middle; visibility: inherit; font-family: &quot;Helvetica Neue&quot;, sans-serif; font-size: 12px; font-weight: 200;" fill="rgb(50, 49, 63)" stroke="none" stroke-width="1px">2.5k</text><text x="1260" y="0" dx="0em" dy="0.95em" style="text-anchor: middle; visibility: inherit; font-family: &quot;Helvetica Neue&quot;, sans-serif; font-size: 12px; font-weight: 200;" fill="rgb(50, 49, 63)" stroke="none" stroke-width="1px">3k</text><text x="1440" y="0" dx="0em" dy="0.95em" style="text-anchor: middle; visibility: hidden; font-family: &quot;Helvetica Neue&quot;, sans-serif; font-size: 12px; font-weight: 200;" fill="rgb(50, 49, 63)" stroke="none" stroke-width="1px">3.5k</text></g><line x1="0" y1="0" x2="1440" y2="0" fill="rgb(0, 0, 0)" stroke="rgb(204, 204, 204)" stroke-width="1px"></line></g></g></g></g></svg>