<svg viewBox="0 0 330 200" xmlns="http://www.w3.org/2000/svg"><g><g><g><g><g><line x1="70" y1="178" x2="65" y2="178" style="visibility: inherit;" fill="rgb(0, 0, 0)" stroke="rgb(204, 204, 204)" stroke-width="1px"></line><line x1="70" y1="155.75" x2="65" y2="155.75" style="visibility: inherit;" fill="rgb(0, 0, 0)" stroke="rgb(204, 204, 204)" stroke-width="1px"></line><line x1="70" y1="133.5" x2="65" y2="133.5" style="visibility: inherit;" fill="rgb(0, 0, 0)" stroke="rgb(204, 204, 204)" stroke-width="1px"></line><line x1="70" y1="111.25" x2="65" y2="111.25" style="visibility: inherit;" fill="rgb(0, 0, 0)" stroke="rgb(204, 204, 204)" stroke-width="1px"></line><line x1="70" y1="89" x2="65" y2="89" style="visibility: inherit;" fill="rgb(0, 0, 0)" stroke="rgb(204, 204, 204)" stroke-width="1px"></line><line x1="70" y1="66.75" x2="65" y2="66.75" style="visibility: inherit;" fill="rgb(0, 0, 0)" stroke="rgb(204, 204, 204)" stroke-width="1px"></line><line x1="70" y1="44.5" x2="65" y2="44.5" style="visibility: inherit;" fill="rgb(0, 0, 0)" stroke="rgb(204, 204, 204)" stroke-width="1px"></line><line x1="70" y1="22.25000000000003" x2="65" y2="22.25000000000003" style="visibility: inherit;" fill="rgb(0, 0, 0)" stroke="rgb(204, 204, 204)" stroke-width="1px"></line><line x1="70" y1="0" x2="65" y2="0" style="visibility: inherit;" fill="rgb(0, 0, 0)" stroke="rgb(204, 204, 204)" stroke-width="1px"></line></g><g transform="translate(60, 0)"><text x="0" y="178" dx="0em" dy="0.3em" style="text-anchor: end; visibility: hidden; font-family: &quot;Helvetica Neue&quot;, sans-serif; font-size: 12px; font-weight: 200;" fill="rgb(50, 49, 63)" stroke="none" stroke-width="1px">-0.02</text><text x="0" y="155.75" dx="0em" dy="0.3em" style="text-anchor: end; visibility: inherit; font-family: &quot;Helvetica Neue&quot;, sans-serif; font-size: 12px; font-weight: 200;" fill="rgb(50, 49, 63)" stroke="none" stroke-width="1px">0</text><text x="0" y="133.5" dx="0em" dy="0.3em" style="text-anchor: end; visibility: hidden; font-family: &quot;Helvetica Neue&quot;, sans-serif; font-size: 12px; font-weight: 200;" fill="rgb(50, 49, 63)" stroke="none" stroke-width="1px">0.02</text><text x="0" y="111.25" dx="0em" dy="0.3em" style="text-anchor: end; visibility: inherit; font-family: &quot;Helvetica Neue&quot;, sans-serif; font-size: 12px; font-weight: 200;" fill="rgb(50, 49, 63)" stroke="none" stroke-width="1px">0.04</text><text x="0" y="89" dx="0em" dy="0.3em" style="text-anchor: end; visibility: hidden; font-family: &quot;Helvetica Neue&quot;, sans-serif; font-size: 12px; font-weight: 200;" fill="rgb(50, 49, 63)" stroke="none" stroke-width="1px">0.06</text><text x="0" y="66.75" dx="0em" dy="0.3em" style="text-anchor: end; visibility: inherit; font-family: &quot;Helvetica Neue&quot;, sans-serif; font-size: 12px; font-weight: 200;" fill="rgb(50, 49, 63)" stroke="none" stroke-width="1px">0.08</text><text x="0" y="44.5" dx="0em" dy="0.3em" style="text-anchor: end; visibility: hidden; font-family: &quot;Helvetica Neue&quot;, sans-serif; font-size: 12px; font-weight: 200;" fill="rgb(50, 49, 63)" stroke="none" stroke-width="1px">0.1</text><text x="0" y="22.25000000000003" dx="0em" dy="0.3em" style="text-anchor: end; visibility: inherit; font-family: &quot;Helvetica Neue&quot;, sans-serif; font-size: 12px; font-weight: 200;" fill="rgb(50, 49, 63)" stroke="none" stroke-width="1px">0.12</text><text x="0" y="0" dx="0em" dy="0.3em" style="text-anchor: end; visibility: hidden; font-family: &quot;Helvetica Neue&quot;, sans-serif; font-size: 12px; font-weight: 200;" fill="rgb(50, 49, 63)" stroke="none" stroke-width="1px">0.14</text></g><line x1="70" y1="0" x2="70" y2="178" fill="rgb(0, 0, 0)" stroke="rgb(204, 204, 204)" stroke-width="1px"></line></g></g><g transform="translate(70, 0)" clip-path="url(#clip_0)"><clipPath id="clip_0"><rect width="260" height="178"></rect></clipPath><g><g><g><line x1="0" y1="0" x2="0" y2="178" fill="rgb(0, 0, 0)" stroke="rgb(60, 60, 60)" stroke-width="1px" opacity="0.25"></line><line x1="32.5" y1="0" x2="32.5" y2="178" fill="rgb(0, 0, 0)" stroke="rgb(60, 60, 60)" stroke-width="1px" opacity="0.25"></line><line x1="65" y1="0" x2="65" y2="178" fill="rgb(0, 0, 0)" stroke="rgb(60, 60, 60)" stroke-width="1px" opacity="0.25"></line><line x1="97.5" y1="0" x2="97.5" y2="178" fill="rgb(0, 0, 0)" stroke="rgb(60, 60, 60)" stroke-width="1px" opacity="0.25"></line><line x1="130" y1="0" x2="130" y2="178" fill="rgb(0, 0, 0)" stroke="rgb(60, 60, 60)" stroke-width="1px" opacity="0.25"></line><line x1="162.5" y1="0" x2="162.5" y2="178" fill="rgb(0, 0, 0)" stroke="rgb(60, 60, 60)" stroke-width="1px" opacity="0.25"></line><line x1="195" y1="0" x2="195" y2="178" fill="rgb(0, 0, 0)" stroke="rgb(60, 60, 60)" stroke-width="1px" opacity="0.25"></line><line x1="227.5" y1="0" x2="227.5" y2="178" fill="rgb(0, 0, 0)" stroke="rgb(60, 60, 60)" stroke-width="1px" opacity="0.25"></line><line x1="260" y1="0" x2="260" y2="178" fill="rgb(0, 0, 0)" stroke="rgb(60, 60, 60)" stroke-width="1px" opacity="0.25"></line></g><g><line x1="0" y1="178" x2="260" y2="178" fill="rgb(0, 0, 0)" stroke="rgb(60, 60, 60)" stroke-width="1px" opacity="0.25"></line><line x1="0" y1="155.75" x2="260" y2="155.75" fill="rgb(0, 0, 0)" stroke="rgb(60, 60, 60)" stroke-width="1px" opacity="0.25"></line><line x1="0" y1="133.5" x2="260" y2="133.5" fill="rgb(0, 0, 0)" stroke="rgb(60, 60, 60)" stroke-width="1px" opacity="0.25"></line><line x1="0" y1="111.25" x2="260" y2="111.25" fill="rgb(0, 0, 0)" stroke="rgb(60, 60, 60)" stroke-width="1px" opacity="0.25"></line><line x1="0" y1="89" x2="260" y2="89" fill="rgb(0, 0, 0)" stroke="rgb(60, 60, 60)" stroke-width="1px" opacity="0.25"></line><line x1="0" y1="66.75" x2="260" y2="66.75" fill="rgb(0, 0, 0)" stroke="rgb(60, 60, 60)" stroke-width="1px" opacity="0.25"></line><line x1="0" y1="44.5" x2="260" y2="44.5" fill="rgb(0, 0, 0)" stroke="rgb(60, 60, 60)" stroke-width="1px" opacity="0.25"></line><line x1="0" y1="22.25000000000003" x2="260" y2="22.25000000000003" fill="rgb(0, 0, 0)" stroke="rgb(60, 60, 60)" stroke-width="1px" opacity="0.25"></line><line x1="0" y1="0" x2="260" y2="0" fill="rgb(0, 0, 0)" stroke="rgb(60, 60, 60)" stroke-width="1px" opacity="0.25"></line></g></g></g><g><g><line x1="0" y1="155.75" x2="260" y2="155.75" fill="rgb(0, 0, 0)" stroke="rgb(153, 153, 153)" stroke-width="1.5px"></line></g></g><g><g><line x1="32.5" y1="0" x2="32.5" y2="178" fill="rgb(0, 0, 0)" stroke="rgb(153, 153, 153)" stroke-width="1.5px"></line></g></g><g><g><g><g><g><path stroke="rgb(255, 112, 67)" stroke-width="2px" d="M32.825,155.75L33.67,155.75L34.06,155.75L35.1,155.75L35.230000000000004,125.59244882026371L35.36,138.245825221536L35.425000000000004,145.44914189865418L35.555,149.63987333491292L35.945,152.10880514517632L36.14,125.59244882026371L36.724999999999994,137.69939292895612L37.114999999999995,117.06221310887648L37.245,104.70869331111597L37.309999999999995,97.30691564547365L37.635,92.86956301070406L38.155,62.38813866159998L38.61,99.73920548484011L39.129999999999995,122.14579890356077L39.324999999999996,135.5882984739408L39.39,143.65327395264615L39.845,148.49207052002913L40.17,151.39528052456222L40.69,153.1371820710603L40.95,154.18231419487074L41.535000000000004,154.80939029971788L42.25,155.18563482163512L42.575,155.41138112403024L42.77,155.54682875759576L43.355000000000004,155.62809728450137L43.42,155.67685838148063L44.07,155.7061150327691L44.395,155.72366902105853L44.525000000000006,127.9217000850364L44.59,139.05302036994732L44.849999999999994,145.73181233678156L45.37,149.73908744340167L45.89,152.14345248092079L45.955,153.5860714939092L46.28,154.45164289827395L46.995,154.9709857396586L47.385,155.28259144404507L47.71,155.46955486651703L47.905,155.5817329199426L48.685,155.64903975197723L49.075,127.87692384829953L49.4,139.02615430967506L49.595,145.71569258605535L49.855000000000004,149.72941555172335L50.115,152.13764933106646L50.245000000000005,153.58258959865154L51.480000000000004,154.44955375919514L51.805,154.96973225551858L51.870000000000005,127.46933935326314L52.195,110.96910361194061L52.52,128.8814621671756L52.650000000000006,84.00387730028844L53.169999999999995,112.70232638017956L53.235,129.92139582811006L53.69,140.2528374968669L53.754999999999995,146.45170249812043L53.949999999999996,150.17102149887236L54.535,152.40261289932346L55.055,153.74156773959407L56.095,154.54494064375646L56.355,155.0269643862539L56.745,127.50367863175225L57.005,110.98970717905134L57.135,101.08132430743079L57.980000000000004,122.9487945844585L59.02,136.0692767506751L59.865,143.94156605040507L59.93,148.66493963024303L60.06,151.49896377814582L60.45,153.1993782668875L61.035,154.2196269601325L61.165,127.0192761760795L61.23,138.51156570564768L61.425,145.40693942338862L61.815,149.54416365403318L62.4,152.0264981924199L62.595,153.51589891545194L62.66,154.40953934927117L63.309999999999995,154.9457236095627L64.285,155.26743416573763L64.415,155.46046049944258L64.545,155.57627629966555L65.455,155.64576577979932L65.78,127.87495946787959L65.91,139.02497568072775L66.10499999999999,117.90248540843666L66.625,133.041491245062L67.015,142.1248947470372L67.145,147.5749368482223L67.34,150.8449621089334L67.73,152.80697726536005L68.05499999999999,153.984186359216L68.705,126.87801181552962L68.835,138.42680708931778L69.095,117.54358425359067L69.485,132.8261505521544L69.74499999999999,114.18319033129262L70.13499999999999,130.80991419877557L70.265,140.78594851926536L70.33,91.1465691115592L70.46000000000001,116.98794146693552L70.59,104.68026488016132L70.655,125.10815892809678L70.98,137.36489535685809L71.045,144.71893721411485L71.63000000000001,149.13136232846892L72.02000000000001,151.77881739708135L72.15,125.5547904382488L72.475,137.6328742629493L72.80000000000001,144.87972455776958L72.93,121.41533473466174L73.71,135.14920084079705L74.165,143.3895205044782L74.22999999999999,148.33371230268693L74.36,123.48772738161216L74.49,136.3926364289673L74.555,144.13558185738037L74.685,120.96884911442822L75.465,107.06880946865692L75.66,126.54128568119415L75.92,110.41227140871649L76.11500000000001,100.7348628452299L76.31,122.74091770713794L76.57,135.94455062428278L76.635,143.86673037456967L76.89500000000001,120.80753822474179L77.22,134.78452293484509L77.285,143.17071376090706L77.935,148.20242825654424L78.19500000000001,151.22145695392655L78.39,125.22037417235592L78.91,81.80722450341355L79.17,111.38433470204814L79.36500000000001,129.13060082122888L79.42999999999999,139.77836049273733L79.495,118.35451629564238L79.95,133.31270977738544L80.34,114.47512586643126L80.47,130.98507551985875L80.53500000000001,140.89104531191526L80.795,119.02212718714915L81.055,133.7132763122895L81.25,142.5279657873737L81.315,147.81677947242423L81.38,150.99006768345453L81.64,152.89404061007272L82.225,126.22392436604363L82.485,138.03435461962619L82.55,117.30811277177571L82.615,132.68486766306543L82.74499999999999,141.91092059783927L82.81,119.63405235870357L83.2,134.08043141522214L83.46000000000001,142.74825884913326L83.52499999999999,147.94895530947997L83.655,151.069373185688L83.785,125.12912391141279L83.98,137.3774743468477L84.045,144.7264846081086L84.11,149.13589076486517L84.175,123.9690344589191L84.37,136.68142067535146L84.63000000000001,144.30885240521087L84.955,121.07281144312654L85.02000000000001,134.94368686587592L85.085,115.45371211952553L85.475,131.57222727171532L86.125,141.2433363630292L86.32000000000001,147.0460018178175L86.58,122.71510109069051L86.84,135.92906065441431L86.97,116.0449363926486L87.295,131.92696183558917L88.855,141.4561771013535L88.985,91.54870626081208L89.05000000000001,89.41672375648726L89.31,115.95003425389234L89.44,131.8700205523354L89.69999999999999,141.42201233140125L89.83,119.34070739884075L90.35,133.90442443930445L90.74,142.64265466358268L91,147.88559279814962L91.455,151.03135567888975L91.52,125.10631340733386L91.58500000000001,137.3637880444003L91.97500000000001,144.7182728266402L92.105,149.13096369598412L92.3,151.77857821759048L92.36500000000001,153.36714693055427L92.495,154.32028815833257L93.015,154.89217289499953L93.08,127.42280373699973L93.275,110.94118224219984L93.72999999999999,128.8647093453199L93.925,139.61882560719192L94.50999999999999,146.07129536431518L94.64,149.9427772185891L94.77,152.26566633115345L94.965,153.65939979869208L95.03,154.49563987921525L95.61500000000001,154.99738392752914L95.67999999999999,127.48593035651749L95.94,110.97905821391049L96.00500000000001,128.8874349283463L96.07,139.63246095700777L96.135,118.26697657420468L96.39500000000001,133.26018594452282L96.46,142.25611156671368L96.655,119.8411669400282L96.72,106.39220016401693L97.24,126.13532009841015L97.5,137.9811920590461L97.63,145.08871523542766L97.76,121.54072914125659L97.82499999999999,135.22443748475396L98.41,143.43466249085236L98.60499999999999,148.36079749451142L99.125,151.31647849670685L99.255,153.08988709802412L99.515,154.15393225881448L99.58,154.79235935528868L99.905,155.17541561317321L100.36,155.40524936790393L101.075,127.73064962074235L101.205,138.93838977244542L101.595,117.85053386346726L101.79,133.01032031808035L101.92,142.10619219084822L102.18,119.75121531450893L102.44,134.15072918870536L102.57000000000001,114.97793751322321L102.895,131.28676250793393L102.96000000000001,141.07205750476035L103.02499999999999,146.94323450285623L103.545,150.46594070171372L103.935,96.95456442102824L104.195,92.66023865261695L104.26,117.89614319157018L104.325,133.0376859149421L104.91000000000001,142.12261154896527L105.235,147.57356692937915L106.145,150.8441401576275L106.275,97.18148409457649L107.575,92.7963904567459L107.64,117.97783427404755L107.89999999999999,105.27420056442853L107.965,125.46452033865711L108.03,137.57871220319427L109.2,144.84722732191656L109.525,149.20833639314995L109.97999999999999,151.82500183588996L110.045,153.39500110153398L110.435,126.52450066092038L110.565,110.40220039655225L110.89,72.91632023793134L111.02,78.23729214275879L111.14999999999999,109.24237528565527L111.41,72.22042517139316L112.58,105.6322551028359L112.71,125.67935306170153L112.84,137.70761183702092L113.36,117.11206710221254L113.555,132.56724026132753L113.945,141.8403441567965L114.07499999999999,63.9667064940779L114.205,72.86752389644674L114.27,106.02051433786805L114.46499999999999,125.91230860272083L114.79,137.8473851616325L115.31,145.0084310969795L115.765,149.3050586581877L116.155,151.88303519491262L116.41499999999999,125.61732111694758L116.48,137.67039267016855L116.545,144.90223560210114L116.61,149.24134136126068L117,151.8448048167564L117.65,125.59438289005384L117.78,82.03162973403231L117.975,111.5189778404194L118.04,129.21138670425165L118.235,139.826832022551L118.625,146.1960992135306L118.755,122.20515952811834L118.95,79.998095716871L119.145,110.29885743012261L119.34,128.47931445807356L119.405,139.38758867484415L120.575,118.12005320490647L121.29,105.35953192294389L121.55000000000001,125.51571915376634L122.525,109.7969314922598L122.72,128.1781588953559L122.785,111.39439533721352L122.915,129.1366372023281L122.97999999999999,139.78198232139687L124.28,146.16918939283812L124.345,122.18901363570288L124.41,135.61340818142173L124.735,143.66804490885303L124.92999999999999,120.68832694531181L125.19,134.7129961671871L125.32,143.12779770031227L125.58,148.17667862018735L125.84,151.2060071721124L126.1,125.21110430326745L127.14,137.42666258196047L127.72500000000001,144.7559975491763L127.78999999999999,149.15359852950576L128.505,151.79215911770345L129.025,125.56279547062208L129.09,109.82517728237325L129.285,128.19510636942394L129.41500000000002,139.21706382165436L129.48,90.20523829299262L130,116.42314297579557L130.065,132.15388578547734L130.52,141.5923314712864L130.64999999999998,147.25539888277186L131.495,150.6532393296631L131.56,124.87944359779786L131.755,137.22766615867872L132.20999999999998,116.82409969520722L132.98999999999998,104.58195981712434L133.315,69.4241758902746L133.38,76.14200553416474L133.51,107.98520332049887L133.965,127.09112199229932L134.42000000000002,138.5546731953796L134.48499999999999,145.43280391722774L135.07,121.74718235033664L135.32999999999998,79.72330941020199L135.46,82.32148564612118L135.72,83.8803913876727L136.305,57.003234832603624L136.76000000000002,68.68944089956217L136.825,103.5136645397373L137.15,124.40819872384239L137.67,136.94491923430542L137.8,144.46695154058327L138.255,148.98017092434995L138.32,151.68810255460997L138.58,153.312861532766L138.905,154.2877169196596L139.1,154.87263015179576L139.23,155.22357809107746L139.425,155.43414685464649L139.62,155.56048811278788L139.88,127.82379286767272L140.4,138.99427572060364L140.92000000000002,117.88406543236218L141.04999999999998,105.21793925941732L141.18,125.4307635556504L141.375,137.55845813339025L141.44,144.83507488003414L141.82999999999998,149.20104492802048L141.89499999999998,151.8206269568123L142.415,153.39237617408736L142.60999999999999,154.33542570445243L142.67499999999998,154.90125542267145L142.74,155.24075325360286L142.805,155.44445195216173L142.935,127.75417117129703L143.13,138.95250270277822L143.585,145.67150162166695L143.65,149.70290097300017L144.10500000000002,152.1217405838001L144.17,153.57304435028007L144.23499999999999,154.44382661016803L144.82000000000002,154.96629596610083L145.08,155.2797775796605L145.21,155.4678665477963L145.275,155.58071992867778L145.405,155.64843195720667L145.73,127.876559174324L145.795,139.0259355045944L145.925,145.71556130275664L145.99,149.72933678165398L146.055,124.32510206899238L146.38,136.89506124139544L147.29,116.62453674483726L147.875,76.64972204690235L148.26500000000001,80.47733322814142L148.72,110.58639993688486L148.785,128.6518399621309L149.37,139.49110397727856L149.82500000000002,145.9946623863671L150.41,149.8967974318203L150.60500000000002,124.42557845909216L151.06,136.9553470754553L151.19,144.47320824527318L151.45000000000002,148.9839249471639L152.1,123.87785496829835L152.16500000000002,136.626712980979L152.35999999999999,144.2760277885874L152.685,148.86561667315243L152.94500000000002,151.61937000389148L153.79000000000002,153.27162200233488L153.92,154.26297320140094L153.985,154.85778392084055L154.375,155.21467035250433L154.44,127.6163022115026L154.505,138.86978132690155L154.635,117.80936879614094L154.765,132.98562127768457L155.545,114.27887276661073L156.715,130.86732365996644L157.105,140.82039419597987L157.56,118.97973651758792L157.95000000000002,133.68784191055275L158.21,142.51270514633165L158.34,119.99512308779899L158.47,106.48457385267939L158.85999999999999,126.19074431160763L159.055,138.0144465869646L159.185,145.10866795217873L159.38,121.55270077130726L159.57500000000002,135.23162046278435L159.77,115.62647227767062L160.35500000000002,103.86338336660236L160.48499999999999,96.80553001996142L161.265,120.38331801197684L161.33,134.5299908071861L161.395,143.01799448431166L162.305,148.110796690587L162.565,123.3539780143522L162.825,136.3123868086113L163.08499999999998,116.2749320851668L163.14999999999998,132.06495925110008L163.345,85.91397555066006L163.475,113.84838533039603L163.605,130.60903119823763L164.125,140.66541871894256L164.255,118.88675123136554L164.45,133.63205073881932L164.64499999999998,59.041730443291584L164.84,97.72503826597496L164.97,120.93502295958498L165.165,107.04851377575099L165.36,98.71660826545059L166.4,121.52996495927036L166.85500000000002,135.2179789755622L167.18,143.43078738533734L167.245,148.3584724312024L167.31,151.31508345872143L167.44,153.08905007523288L167.505,154.15343004513971L167.63500000000002,154.79205802708384L167.765,127.3627348162503L168.025,138.7176408897502L168.285,145.53058453385012L168.60999999999999,149.61835072031008L168.74,152.07101043218603L169.19500000000002,125.73010625931164L169.325,137.73806375558698L169.39,144.9428382533522L169.715,149.2657029520113L169.97500000000002,151.8594217712068L170.3,97.79065306272408L170.43,120.97439183763444L170.495,134.88463510258066L171.145,143.23078106154838L171.20999999999998,120.42596863692904L171.47,134.55558118215743L171.665,143.03334870929444L171.86,120.30750922557667L171.925,134.484505535346L172.12,142.9907033212076L172.185,148.09442199272456L172.315,151.15665319563473L172.64000000000001,152.99399191738084L172.705,126.2838951504285L173.16,138.0703370902571L173.225,145.14220225415426L173.485,149.38532135249255L173.61499999999998,151.93119281149555L173.745,125.6462156868973L174.005,137.6877294121384L174.655,144.91263764728302L174.785,149.24758258836982L174.915,151.84854955302188L174.98000000000002,153.40912973181315L175.24,154.3454778390879L175.435,154.9072867034527L175.95499999999998,127.43187202207164L176.215,110.94662321324299L176.41,128.8679739279458L177.125,139.62078435676747L177.38500000000002,118.25997061406048L177.515,133.2559823684363L177.84,142.25358942106178L177.905,147.65215365263708L178.035,150.89129219158224L178.16500000000002,125.02227531494933L178.23,137.3133651889696L178.36,116.87551911338176L178.49,104.61281146802904L178.555,97.25518688081743L178.815,120.65311212849048L179.01,134.69186727709427L179.205,143.11512036625658L179.53,148.16907221975396L180.31,123.38894333185235L180.57,136.33336599911144L180.76500000000001,144.10001959946686L181.415,148.7600117596801L181.805,123.74350705580807L181.87,108.73360423348484L182,99.7276625400909L182.195,38.69909752405454L182.39000000000001,57.70695851443273L182.45499999999998,96.92417510865965L182.51999999999998,120.45450506519579L183.17000000000002,106.76020303911747L183.23499999999999,98.54362182347047L183.29999999999998,121.42617309408229L183.43,135.15570385644938L184.21,143.39342231386962L184.275,148.33605338832177L184.34,151.30163203299307L184.405,153.08097921979584L184.925,154.1485875318775L185.51000000000002,154.7891525191265L186.615,99.5484915114759L187.52499999999998,122.02909490688555L187.72,107.70495694413131L187.785,126.92297416647878L187.85,138.45378449988726L187.98,117.55977069993236L188.5,132.83586241995943L188.63,86.37651745197564L188.89000000000001,114.12591047118539L189.54,130.77554628271122L190.06,112.95282776962675L190.125,130.07169666177606L190.84,140.34301799706563L191.35999999999999,118.69331079823937L191.75,105.70348647894362L191.815,97.90959188736616L191.945,93.23325513241971L192.07500000000002,90.42745307945182L192.4,116.5564718476711L193.63500000000002,132.23388310860267L193.765,113.82782986516159L194.025,130.59669791909695L194.09,140.65801875145817L194.74,146.69481125087492L194.87,122.50438675052493L195.065,107.99013205031495L195.13,127.09407923018898L195.195,138.5564475381134L195.845,145.43386852286804L195.91,149.56032111372082L196.105,152.0361926682325L196.235,153.5217156009395L196.495,154.4130293605637L196.625,154.94781761633823L196.82,155.26869056980294L196.95,155.46121434188177L197.08,155.57672860512906L197.20999999999998,155.64603716307744L197.79500000000002,155.68762229784647L198.055,155.71257337870787L198.315,155.72754402722472L198.445,127.92402641633484L198.64000000000001,139.0544158498009L198.835,117.92014950988053L199.225,133.05208970592832L199.29,142.131253823557L199.54999999999998,147.5787522941342L199.745,150.84725137648053L199.94,124.99585082588831L200.07,137.297510495533L200.655,144.67850629731979L200.85,121.29460377839186L200.91500000000002,135.07676226703512L200.98000000000002,143.34605736022107L201.045,148.30763441613266L201.24,151.28458064967958L201.5,153.07074838980776L201.89,154.14244903388465L201.955,126.9729694203308L202.15,138.48378165219847L202.67,117.57776899131908L202.995,132.84666139479145L203.19,142.00799683687487L203.385,147.50479810212494L203.45,150.80287886127496L203.84,152.78172731676497L203.97,153.969036390059L204.36,154.6814218340354L204.55499999999998,155.10885310042124L204.75,127.55281186025275L204.815,138.83168711615164L205.075,145.599012269691L206.31,149.6594073618146L206.57,152.09564441708875L206.70000000000002,153.55738665025325L207.025,154.43443199015195L207.35,154.96065919409116L208.195,155.2763955164547L208.45499999999998,155.46583730987282L208.65,127.76700238592369L209.625,138.9602014315542L210.34,117.86362085893252L210.405,105.20567251535951L210.60000000000002,69.7984035092157L210.99,104.17904210552943L211.445,124.80742526331764L211.51,137.1844551579906L211.575,144.61067309479435L211.64,149.0664038568766L211.705,123.92734231412598L211.77,136.65640538847558L212.29,116.48134323308535L213.785,132.1888059398512L213.85,113.80078356391073L213.915,102.76797013834643L214.37,96.14828208300786L215.085,64.36396924980471L215.215,100.91838154988284L215.995,95.0385289299297L216.06,119.32311735795781L216.255,106.0813704147747L216.38500000000002,125.94882224886481L216.45000000000002,137.8692933493189L216.57999999999998,145.02157600959134L217.815,149.3129456057548L218.14,151.8877673634529L218.335,125.62016041807172L218.53,137.67209625084303L219.115,144.90325775050582L219.18,149.24195465030348L219.57,151.8451727901821L219.7,125.59460367410925L219.765,137.65676220446556L220.155,144.89405732267932L220.35,149.2364343936076L220.415,151.84186063616457L220.73999999999998,125.59261638169873L220.87,137.65556982901924L221,144.89334189741155L221.195,121.42350513844693L221.26,135.15410308306815L221.78,143.39246184984088L222.105,148.33547710990453L222.235,123.48878626594271L222.29999999999998,108.58077175956564L222.36499999999998,127.44846305573938L223.07999999999998,110.95657783344363L223.73000000000002,101.06144670006617L224.25,122.9368680200397L225.35500000000002,136.06212081202384L225.68,116.1247724872143L225.81,104.16236349232858L225.875,124.79741809539715L226.07000000000002,137.1784508572383L226.72,144.60707051434298L227.11,121.25174230860578L227.37,79.42604538516346L227.695,109.95562723109808L227.825,100.46087633865886L227.955,122.57652580319532L228.08499999999998,80.22091548191717L228.215,110.43254928915033L228.475,128.55952957349018L228.54,139.43571774409412L228.735,145.96143064645648L229.125,149.87685838787388L229.255,152.22611503272432L229.45,153.6356690196346L229.97,126.66890141178075L230.1,138.30134084706845L230.165,145.28080450824106L230.23,149.46848270494465L230.75,151.98108962296678L231.725,125.67615377378007L231.85500000000002,137.70569226426804L231.98499999999999,117.11091535856082L232.115,132.5665492151365L232.245,114.0274295290819L232.82999999999998,130.71645771744915L233.09,112.91737463046948L233.22,102.2379247782817L233.935,123.64275486696903L234.19500000000002,108.67315292018142L234.845,99.69139175210886L235.43,122.11483505126532L235.755,135.56890103075918L236.20999999999998,143.6413406184555L236.405,148.4848043710733L236.47,151.39088262264397L236.86,153.1345295735864L236.925,154.18071774415182L237.05499999999998,154.8084306464911L237.25,155.18505838789466L237.575,155.4110350327368L237.76999999999998,155.5466210196421L237.83499999999998,155.62797261178525L237.965,127.86428356707114L239.005,111.20607014024269L239.46,101.2111420841456L239.72,95.21418525048738L240.17499999999998,119.42851115029242L240.24,133.95710669017546L240.695,142.6742640141053L240.89,147.90455840846317L242.45,151.0427350450779L242.645,152.92564102704674L242.775,126.24288461622804L243.10000000000002,138.04573076973682L243.295,145.1274384618421L243.36,149.37646307710526L243.49,96.30087784626315L243.555,92.2680267077579L244.01,117.66081602465474L244.14,132.89648961479284L244.27,142.0378937688757L244.855,147.52273626132543L245.17999999999998,123.00114175679525L245.76500000000001,136.10068505407716L245.89499999999998,143.9604110324463L246.025,148.67624661946778L246.285,151.50574797168065L246.48,153.2034487830084L247.32500000000002,126.40956926980505L247.39000000000001,110.33324156188301L247.45499999999998,128.4999449371298L247.845,139.3999669622779L248.365,145.93998017736675L248.755,122.05148810642004L248.82,107.71839286385202L248.88500000000002,126.93103571831121L249.145,138.45862143098674L249.47,145.37517285859204L249.925,121.71260371515521L250.44500000000002,135.32756222909313L250.705,143.4965373374559L250.965,148.39792240247354L251.095,151.33875344148413L251.485,153.10325206489046L251.68,154.16195123893428L251.81,99.17217074336055L251.94,93.99080244601633L252.07,118.6944814676098L252.265,133.51668888056588L252.59,114.59751332833953L253.37,131.05850799700372L253.695,140.93510479820222L254.01999999999998,146.86106287892133L255.19,150.4166377273528L255.45000000000002,124.73748263641168L255.64499999999998,109.32998958184702L255.97,127.8979937491082L256.36,139.03879624946492L256.425,145.72327774967897L256.685,149.73396664980737L256.815,124.32787998988442L257.205,136.89672799393065L257.27000000000004,144.4380367963584L257.66,148.96282207781505L258.115,151.67769324668902L258.505,153.30661594801342L258.7,154.28396956880806L259.09000000000003,127.05788174128483L259.805,138.5347290447709L259.935,117.60833742686253L260.39,105.05250245611752" style="fill: none;" fill="none"></path></g></g></g></g><g opacity="0.2"><g><g><g><path stroke="rgb(255, 112, 67)" stroke-width="2px" d="M32.825,155.75L33.67,155.75L34.06,155.75L35.1,155.75L35.230000000000004,86.21875L35.36,155.75L35.425000000000004,155.75L35.555,155.75L35.945,155.75L36.14,86.21875L36.724999999999994,155.75L37.114999999999995,86.21875L37.245,86.21875L37.309999999999995,86.21875L37.635,86.21875L38.155,16.68750000000003L38.61,155.75L39.129999999999995,155.75L39.324999999999996,155.75L39.39,155.75L39.845,155.75L40.17,155.75L40.69,155.75L40.95,155.75L41.535000000000004,155.75L42.25,155.75L42.575,155.75L42.77,155.75L43.355000000000004,155.75L43.42,155.75L44.07,155.75L44.395,155.75L44.525000000000006,86.21875L44.59,155.75L44.849999999999994,155.75L45.37,155.75L45.89,155.75L45.955,155.75L46.28,155.75L46.995,155.75L47.385,155.75L47.71,155.75L47.905,155.75L48.685,155.75L49.075,86.21875L49.4,155.75L49.595,155.75L49.855000000000004,155.75L50.115,155.75L50.245000000000005,155.75L51.480000000000004,155.75L51.805,155.75L51.870000000000005,86.21875L52.195,86.21875L52.52,155.75L52.650000000000006,16.68750000000003L53.169999999999995,155.75L53.235,155.75L53.69,155.75L53.754999999999995,155.75L53.949999999999996,155.75L54.535,155.75L55.055,155.75L56.095,155.75L56.355,155.75L56.745,86.21875L57.005,86.21875L57.135,86.21875L57.980000000000004,155.75L59.02,155.75L59.865,155.75L59.93,155.75L60.06,155.75L60.45,155.75L61.035,155.75L61.165,86.21875L61.23,155.75L61.425,155.75L61.815,155.75L62.4,155.75L62.595,155.75L62.66,155.75L63.309999999999995,155.75L64.285,155.75L64.415,155.75L64.545,155.75L65.455,155.75L65.78,86.21875L65.91,155.75L66.10499999999999,86.21875L66.625,155.75L67.015,155.75L67.145,155.75L67.34,155.75L67.73,155.75L68.05499999999999,155.75L68.705,86.21875L68.835,155.75L69.095,86.21875L69.485,155.75L69.74499999999999,86.21875L70.13499999999999,155.75L70.265,155.75L70.33,16.68750000000003L70.46000000000001,155.75L70.59,86.21875L70.655,155.75L70.98,155.75L71.045,155.75L71.63000000000001,155.75L72.02000000000001,155.75L72.15,86.21875L72.475,155.75L72.80000000000001,155.75L72.93,86.21875L73.71,155.75L74.165,155.75L74.22999999999999,155.75L74.36,86.21875L74.49,155.75L74.555,155.75L74.685,86.21875L75.465,86.21875L75.66,155.75L75.92,86.21875L76.11500000000001,86.21875L76.31,155.75L76.57,155.75L76.635,155.75L76.89500000000001,86.21875L77.22,155.75L77.285,155.75L77.935,155.75L78.19500000000001,155.75L78.39,86.21875L78.91,16.68750000000003L79.17,155.75L79.36500000000001,155.75L79.42999999999999,155.75L79.495,86.21875L79.95,155.75L80.34,86.21875L80.47,155.75L80.53500000000001,155.75L80.795,86.21875L81.055,155.75L81.25,155.75L81.315,155.75L81.38,155.75L81.64,155.75L82.225,86.21875L82.485,155.75L82.55,86.21875L82.615,155.75L82.74499999999999,155.75L82.81,86.21875L83.2,155.75L83.46000000000001,155.75L83.52499999999999,155.75L83.655,155.75L83.785,86.21875L83.98,155.75L84.045,155.75L84.11,155.75L84.175,86.21875L84.37,155.75L84.63000000000001,155.75L84.955,86.21875L85.02000000000001,155.75L85.085,86.21875L85.475,155.75L86.125,155.75L86.32000000000001,155.75L86.58,86.21875L86.84,155.75L86.97,86.21875L87.295,155.75L88.855,155.75L88.985,16.68750000000003L89.05000000000001,86.21875L89.31,155.75L89.44,155.75L89.69999999999999,155.75L89.83,86.21875L90.35,155.75L90.74,155.75L91,155.75L91.455,155.75L91.52,86.21875L91.58500000000001,155.75L91.97500000000001,155.75L92.105,155.75L92.3,155.75L92.36500000000001,155.75L92.495,155.75L93.015,155.75L93.08,86.21875L93.275,86.21875L93.72999999999999,155.75L93.925,155.75L94.50999999999999,155.75L94.64,155.75L94.77,155.75L94.965,155.75L95.03,155.75L95.61500000000001,155.75L95.67999999999999,86.21875L95.94,86.21875L96.00500000000001,155.75L96.07,155.75L96.135,86.21875L96.39500000000001,155.75L96.46,155.75L96.655,86.21875L96.72,86.21875L97.24,155.75L97.5,155.75L97.63,155.75L97.76,86.21875L97.82499999999999,155.75L98.41,155.75L98.60499999999999,155.75L99.125,155.75L99.255,155.75L99.515,155.75L99.58,155.75L99.905,155.75L100.36,155.75L101.075,86.21875L101.205,155.75L101.595,86.21875L101.79,155.75L101.92,155.75L102.18,86.21875L102.44,155.75L102.57000000000001,86.21875L102.895,155.75L102.96000000000001,155.75L103.02499999999999,155.75L103.545,155.75L103.935,16.68750000000003L104.195,86.21875L104.26,155.75L104.325,155.75L104.91000000000001,155.75L105.235,155.75L106.145,155.75L106.275,16.68750000000003L107.575,86.21875L107.64,155.75L107.89999999999999,86.21875L107.965,155.75L108.03,155.75L109.2,155.75L109.525,155.75L109.97999999999999,155.75L110.045,155.75L110.435,86.21875L110.565,86.21875L110.89,16.68750000000003L111.02,86.21875L111.14999999999999,155.75L111.41,16.68750000000003L112.58,155.75L112.71,155.75L112.84,155.75L113.36,86.21875L113.555,155.75L113.945,155.75L114.07499999999999,-52.84375L114.205,86.21875L114.27,155.75L114.46499999999999,155.75L114.79,155.75L115.31,155.75L115.765,155.75L116.155,155.75L116.41499999999999,86.21875L116.48,155.75L116.545,155.75L116.61,155.75L117,155.75L117.65,86.21875L117.78,16.68750000000003L117.975,155.75L118.04,155.75L118.235,155.75L118.625,155.75L118.755,86.21875L118.95,16.68750000000003L119.145,155.75L119.34,155.75L119.405,155.75L120.575,86.21875L121.29,86.21875L121.55000000000001,155.75L122.525,86.21875L122.72,155.75L122.785,86.21875L122.915,155.75L122.97999999999999,155.75L124.28,155.75L124.345,86.21875L124.41,155.75L124.735,155.75L124.92999999999999,86.21875L125.19,155.75L125.32,155.75L125.58,155.75L125.84,155.75L126.1,86.21875L127.14,155.75L127.72500000000001,155.75L127.78999999999999,155.75L128.505,155.75L129.025,86.21875L129.09,86.21875L129.285,155.75L129.41500000000002,155.75L129.48,16.68750000000003L130,155.75L130.065,155.75L130.52,155.75L130.64999999999998,155.75L131.495,155.75L131.56,86.21875L131.755,155.75L132.20999999999998,86.21875L132.98999999999998,86.21875L133.315,16.68750000000003L133.38,86.21875L133.51,155.75L133.965,155.75L134.42000000000002,155.75L134.48499999999999,155.75L135.07,86.21875L135.32999999999998,16.68750000000003L135.46,86.21875L135.72,86.21875L136.305,16.68750000000003L136.76000000000002,86.21875L136.825,155.75L137.15,155.75L137.67,155.75L137.8,155.75L138.255,155.75L138.32,155.75L138.58,155.75L138.905,155.75L139.1,155.75L139.23,155.75L139.425,155.75L139.62,155.75L139.88,86.21875L140.4,155.75L140.92000000000002,86.21875L141.04999999999998,86.21875L141.18,155.75L141.375,155.75L141.44,155.75L141.82999999999998,155.75L141.89499999999998,155.75L142.415,155.75L142.60999999999999,155.75L142.67499999999998,155.75L142.74,155.75L142.805,155.75L142.935,86.21875L143.13,155.75L143.585,155.75L143.65,155.75L144.10500000000002,155.75L144.17,155.75L144.23499999999999,155.75L144.82000000000002,155.75L145.08,155.75L145.21,155.75L145.275,155.75L145.405,155.75L145.73,86.21875L145.795,155.75L145.925,155.75L145.99,155.75L146.055,86.21875L146.38,155.75L147.29,86.21875L147.875,16.68750000000003L148.26500000000001,86.21875L148.72,155.75L148.785,155.75L149.37,155.75L149.82500000000002,155.75L150.41,155.75L150.60500000000002,86.21875L151.06,155.75L151.19,155.75L151.45000000000002,155.75L152.1,86.21875L152.16500000000002,155.75L152.35999999999999,155.75L152.685,155.75L152.94500000000002,155.75L153.79000000000002,155.75L153.92,155.75L153.985,155.75L154.375,155.75L154.44,86.21875L154.505,155.75L154.635,86.21875L154.765,155.75L155.545,86.21875L156.715,155.75L157.105,155.75L157.56,86.21875L157.95000000000002,155.75L158.21,155.75L158.34,86.21875L158.47,86.21875L158.85999999999999,155.75L159.055,155.75L159.185,155.75L159.38,86.21875L159.57500000000002,155.75L159.77,86.21875L160.35500000000002,86.21875L160.48499999999999,86.21875L161.265,155.75L161.33,155.75L161.395,155.75L162.305,155.75L162.565,86.21875L162.825,155.75L163.08499999999998,86.21875L163.14999999999998,155.75L163.345,16.68750000000003L163.475,155.75L163.605,155.75L164.125,155.75L164.255,86.21875L164.45,155.75L164.64499999999998,-52.84375L164.84,155.75L164.97,155.75L165.165,86.21875L165.36,86.21875L166.4,155.75L166.85500000000002,155.75L167.18,155.75L167.245,155.75L167.31,155.75L167.44,155.75L167.505,155.75L167.63500000000002,155.75L167.765,86.21875L168.025,155.75L168.285,155.75L168.60999999999999,155.75L168.74,155.75L169.19500000000002,86.21875L169.325,155.75L169.39,155.75L169.715,155.75L169.97500000000002,155.75L170.3,16.68750000000003L170.43,155.75L170.495,155.75L171.145,155.75L171.20999999999998,86.21875L171.47,155.75L171.665,155.75L171.86,86.21875L171.925,155.75L172.12,155.75L172.185,155.75L172.315,155.75L172.64000000000001,155.75L172.705,86.21875L173.16,155.75L173.225,155.75L173.485,155.75L173.61499999999998,155.75L173.745,86.21875L174.005,155.75L174.655,155.75L174.785,155.75L174.915,155.75L174.98000000000002,155.75L175.24,155.75L175.435,155.75L175.95499999999998,86.21875L176.215,86.21875L176.41,155.75L177.125,155.75L177.38500000000002,86.21875L177.515,155.75L177.84,155.75L177.905,155.75L178.035,155.75L178.16500000000002,86.21875L178.23,155.75L178.36,86.21875L178.49,86.21875L178.555,86.21875L178.815,155.75L179.01,155.75L179.205,155.75L179.53,155.75L180.31,86.21875L180.57,155.75L180.76500000000001,155.75L181.415,155.75L181.805,86.21875L181.87,86.21875L182,86.21875L182.195,-52.84375L182.39000000000001,86.21875L182.45499999999998,155.75L182.51999999999998,155.75L183.17000000000002,86.21875L183.23499999999999,86.21875L183.29999999999998,155.75L183.43,155.75L184.21,155.75L184.275,155.75L184.34,155.75L184.405,155.75L184.925,155.75L185.51000000000002,155.75L186.615,16.68750000000003L187.52499999999998,155.75L187.72,86.21875L187.785,155.75L187.85,155.75L187.98,86.21875L188.5,155.75L188.63,16.68750000000003L188.89000000000001,155.75L189.54,155.75L190.06,86.21875L190.125,155.75L190.84,155.75L191.35999999999999,86.21875L191.75,86.21875L191.815,86.21875L191.945,86.21875L192.07500000000002,86.21875L192.4,155.75L193.63500000000002,155.75L193.765,86.21875L194.025,155.75L194.09,155.75L194.74,155.75L194.87,86.21875L195.065,86.21875L195.13,155.75L195.195,155.75L195.845,155.75L195.91,155.75L196.105,155.75L196.235,155.75L196.495,155.75L196.625,155.75L196.82,155.75L196.95,155.75L197.08,155.75L197.20999999999998,155.75L197.79500000000002,155.75L198.055,155.75L198.315,155.75L198.445,86.21875L198.64000000000001,155.75L198.835,86.21875L199.225,155.75L199.29,155.75L199.54999999999998,155.75L199.745,155.75L199.94,86.21875L200.07,155.75L200.655,155.75L200.85,86.21875L200.91500000000002,155.75L200.98000000000002,155.75L201.045,155.75L201.24,155.75L201.5,155.75L201.89,155.75L201.955,86.21875L202.15,155.75L202.67,86.21875L202.995,155.75L203.19,155.75L203.385,155.75L203.45,155.75L203.84,155.75L203.97,155.75L204.36,155.75L204.55499999999998,155.75L204.75,86.21875L204.815,155.75L205.075,155.75L206.31,155.75L206.57,155.75L206.70000000000002,155.75L207.025,155.75L207.35,155.75L208.195,155.75L208.45499999999998,155.75L208.65,86.21875L209.625,155.75L210.34,86.21875L210.405,86.21875L210.60000000000002,16.68750000000003L210.99,155.75L211.445,155.75L211.51,155.75L211.575,155.75L211.64,155.75L211.705,86.21875L211.77,155.75L212.29,86.21875L213.785,155.75L213.85,86.21875L213.915,86.21875L214.37,86.21875L215.085,16.68750000000003L215.215,155.75L215.995,86.21875L216.06,155.75L216.255,86.21875L216.38500000000002,155.75L216.45000000000002,155.75L216.57999999999998,155.75L217.815,155.75L218.14,155.75L218.335,86.21875L218.53,155.75L219.115,155.75L219.18,155.75L219.57,155.75L219.7,86.21875L219.765,155.75L220.155,155.75L220.35,155.75L220.415,155.75L220.73999999999998,86.21875L220.87,155.75L221,155.75L221.195,86.21875L221.26,155.75L221.78,155.75L222.105,155.75L222.235,86.21875L222.29999999999998,86.21875L222.36499999999998,155.75L223.07999999999998,86.21875L223.73000000000002,86.21875L224.25,155.75L225.35500000000002,155.75L225.68,86.21875L225.81,86.21875L225.875,155.75L226.07000000000002,155.75L226.72,155.75L227.11,86.21875L227.37,16.68750000000003L227.695,155.75L227.825,86.21875L227.955,155.75L228.08499999999998,16.68750000000003L228.215,155.75L228.475,155.75L228.54,155.75L228.735,155.75L229.125,155.75L229.255,155.75L229.45,155.75L229.97,86.21875L230.1,155.75L230.165,155.75L230.23,155.75L230.75,155.75L231.725,86.21875L231.85500000000002,155.75L231.98499999999999,86.21875L232.115,155.75L232.245,86.21875L232.82999999999998,155.75L233.09,86.21875L233.22,86.21875L233.935,155.75L234.19500000000002,86.21875L234.845,86.21875L235.43,155.75L235.755,155.75L236.20999999999998,155.75L236.405,155.75L236.47,155.75L236.86,155.75L236.925,155.75L237.05499999999998,155.75L237.25,155.75L237.575,155.75L237.76999999999998,155.75L237.83499999999998,155.75L237.965,86.21875L239.005,86.21875L239.46,86.21875L239.72,86.21875L240.17499999999998,155.75L240.24,155.75L240.695,155.75L240.89,155.75L242.45,155.75L242.645,155.75L242.775,86.21875L243.10000000000002,155.75L243.295,155.75L243.36,155.75L243.49,16.68750000000003L243.555,86.21875L244.01,155.75L244.14,155.75L244.27,155.75L244.855,155.75L245.17999999999998,86.21875L245.76500000000001,155.75L245.89499999999998,155.75L246.025,155.75L246.285,155.75L246.48,155.75L247.32500000000002,86.21875L247.39000000000001,86.21875L247.45499999999998,155.75L247.845,155.75L248.365,155.75L248.755,86.21875L248.82,86.21875L248.88500000000002,155.75L249.145,155.75L249.47,155.75L249.925,86.21875L250.44500000000002,155.75L250.705,155.75L250.965,155.75L251.095,155.75L251.485,155.75L251.68,155.75L251.81,16.68750000000003L251.94,86.21875L252.07,155.75L252.265,155.75L252.59,86.21875L253.37,155.75L253.695,155.75L254.01999999999998,155.75L255.19,155.75L255.45000000000002,86.21875L255.64499999999998,86.21875L255.97,155.75L256.36,155.75L256.425,155.75L256.685,155.75L256.815,86.21875L257.205,155.75L257.27000000000004,155.75L257.66,155.75L258.115,155.75L258.505,155.75L258.7,155.75L259.09000000000003,86.21875L259.805,155.75L259.935,86.21875L260.39,86.21875" style="fill: none;" fill="none"></path></g></g></g></g></g></g><g transform="translate(70, 178)" clip-path="url(#clip_1)"><clipPath id="clip_1"><rect width="260" height="22"></rect></clipPath><g><g><line x1="0" y1="0" x2="0" y2="5" style="visibility: inherit;" fill="rgb(0, 0, 0)" stroke="rgb(204, 204, 204)" stroke-width="1px"></line><line x1="32.5" y1="0" x2="32.5" y2="5" style="visibility: inherit;" fill="rgb(0, 0, 0)" stroke="rgb(204, 204, 204)" stroke-width="1px"></line><line x1="65" y1="0" x2="65" y2="5" style="visibility: inherit;" fill="rgb(0, 0, 0)" stroke="rgb(204, 204, 204)" stroke-width="1px"></line><line x1="97.5" y1="0" x2="97.5" y2="5" style="visibility: inherit;" fill="rgb(0, 0, 0)" stroke="rgb(204, 204, 204)" stroke-width="1px"></line><line x1="130" y1="0" x2="130" y2="5" style="visibility: inherit;" fill="rgb(0, 0, 0)" stroke="rgb(204, 204, 204)" stroke-width="1px"></line><line x1="162.5" y1="0" x2="162.5" y2="5" style="visibility: inherit;" fill="rgb(0, 0, 0)" stroke="rgb(204, 204, 204)" stroke-width="1px"></line><line x1="195" y1="0" x2="195" y2="5" style="visibility: inherit;" fill="rgb(0, 0, 0)" stroke="rgb(204, 204, 204)" stroke-width="1px"></line><line x1="227.5" y1="0" x2="227.5" y2="5" style="visibility: inherit;" fill="rgb(0, 0, 0)" stroke="rgb(204, 204, 204)" stroke-width="1px"></line><line x1="260" y1="0" x2="260" y2="5" style="visibility: inherit;" fill="rgb(0, 0, 0)" stroke="rgb(204, 204, 204)" stroke-width="1px"></line></g><g transform="translate(0, 8)"><text x="0" y="0" dx="0em" dy="0.95em" style="text-anchor: middle; visibility: hidden; font-family: &quot;Helvetica Neue&quot;, sans-serif; font-size: 12px; font-weight: 200;" fill="rgb(50, 49, 63)" stroke="none" stroke-width="1px">-500</text><text x="32.5" y="0" dx="0em" dy="0.95em" style="text-anchor: middle; visibility: inherit; font-family: &quot;Helvetica Neue&quot;, sans-serif; font-size: 12px; font-weight: 200;" fill="rgb(50, 49, 63)" stroke="none" stroke-width="1px">0</text><text x="65" y="0" dx="0em" dy="0.95em" style="text-anchor: middle; visibility: inherit; font-family: &quot;Helvetica Neue&quot;, sans-serif; font-size: 12px; font-weight: 200;" fill="rgb(50, 49, 63)" stroke="none" stroke-width="1px">500</text><text x="97.5" y="0" dx="0em" dy="0.95em" style="text-anchor: middle; visibility: inherit; font-family: &quot;Helvetica Neue&quot;, sans-serif; font-size: 12px; font-weight: 200;" fill="rgb(50, 49, 63)" stroke="none" stroke-width="1px">1k</text><text x="130" y="0" dx="0em" dy="0.95em" style="text-anchor: middle; visibility: inherit; font-family: &quot;Helvetica Neue&quot;, sans-serif; font-size: 12px; font-weight: 200;" fill="rgb(50, 49, 63)" stroke="none" stroke-width="1px">1.5k</text><text x="162.5" y="0" dx="0em" dy="0.95em" style="text-anchor: middle; visibility: inherit; font-family: &quot;Helvetica Neue&quot;, sans-serif; font-size: 12px; font-weight: 200;" fill="rgb(50, 49, 63)" stroke="none" stroke-width="1px">2k</text><text x="195" y="0" dx="0em" dy="0.95em" style="text-anchor: middle; visibility: inherit; font-family: &quot;Helvetica Neue&quot;, sans-serif; font-size: 12px; font-weight: 200;" fill="rgb(50, 49, 63)" stroke="none" stroke-width="1px">2.5k</text><text x="227.5" y="0" dx="0em" dy="0.95em" style="text-anchor: middle; visibility: inherit; font-family: &quot;Helvetica Neue&quot;, sans-serif; font-size: 12px; font-weight: 200;" fill="rgb(50, 49, 63)" stroke="none" stroke-width="1px">3k</text><text x="260" y="0" dx="0em" dy="0.95em" style="text-anchor: middle; visibility: hidden; font-family: &quot;Helvetica Neue&quot;, sans-serif; font-size: 12px; font-weight: 200;" fill="rgb(50, 49, 63)" stroke="none" stroke-width="1px">3.5k</text></g><line x1="0" y1="0" x2="260" y2="0" fill="rgb(0, 0, 0)" stroke="rgb(204, 204, 204)" stroke-width="1px"></line></g></g></g></g></svg>